<svg width="531" height="60" viewBox="0 0 531 60" fill="none" xmlns="http://www.w3.org/2000/svg">
<path d="M10.8984 9.93945C10.7402 11.293 10.2393 12.3389 9.39551 13.0771C8.55762 13.8096 7.44141 14.1758 6.04688 14.1758C4.53516 14.1758 3.32227 13.6338 2.4082 12.5498C1.5 11.4658 1.0459 10.0156 1.0459 8.19922V6.96875C1.0459 5.7793 1.25684 4.7334 1.67871 3.83105C2.10645 2.92871 2.70996 2.2373 3.48926 1.75684C4.26855 1.27051 5.1709 1.02734 6.19629 1.02734C7.55566 1.02734 8.64551 1.4082 9.46582 2.16992C10.2861 2.92578 10.7637 3.97461 10.8984 5.31641H9.20215C9.05566 4.29688 8.73633 3.55859 8.24414 3.10156C7.75781 2.64453 7.0752 2.41602 6.19629 2.41602C5.11816 2.41602 4.27148 2.81445 3.65625 3.61133C3.04688 4.4082 2.74219 5.54199 2.74219 7.0127V8.25195C2.74219 9.64062 3.03223 10.7451 3.6123 11.5654C4.19238 12.3857 5.00391 12.7959 6.04688 12.7959C6.98438 12.7959 7.70215 12.585 8.2002 12.1631C8.7041 11.7354 9.03809 10.9941 9.20215 9.93945H10.8984ZM17.5518 5.94922C17.3057 5.9082 17.0391 5.8877 16.752 5.8877C15.6855 5.8877 14.9619 6.3418 14.5811 7.25V14H12.9551V4.49023H14.5371L14.5635 5.58887C15.0967 4.73926 15.8525 4.31445 16.8311 4.31445C17.1475 4.31445 17.3877 4.35547 17.5518 4.4375V5.94922ZM22.8252 14.1758C21.5361 14.1758 20.4873 13.7539 19.6787 12.9102C18.8701 12.0605 18.4658 10.9268 18.4658 9.50879V9.20996C18.4658 8.2666 18.6445 7.42578 19.002 6.6875C19.3652 5.94336 19.8691 5.36328 20.5137 4.94727C21.1641 4.52539 21.8672 4.31445 22.623 4.31445C23.8594 4.31445 24.8203 4.72168 25.5059 5.53613C26.1914 6.35059 26.5342 7.5166 26.5342 9.03418V9.71094H20.0918C20.1152 10.6484 20.3877 11.4072 20.9092 11.9873C21.4365 12.5615 22.1045 12.8486 22.9131 12.8486C23.4873 12.8486 23.9736 12.7314 24.3721 12.4971C24.7705 12.2627 25.1191 11.9521 25.418 11.5654L26.4111 12.3389C25.6143 13.5635 24.4189 14.1758 22.8252 14.1758ZM22.623 5.65039C21.9668 5.65039 21.416 5.89062 20.9707 6.37109C20.5254 6.8457 20.25 7.51367 20.1445 8.375H24.9082V8.25195C24.8613 7.42578 24.6387 6.78711 24.2402 6.33594C23.8418 5.87891 23.3027 5.65039 22.623 5.65039ZM34.2949 14C34.2012 13.8125 34.125 13.4785 34.0664 12.998C33.3105 13.7832 32.4082 14.1758 31.3594 14.1758C30.4219 14.1758 29.6514 13.9121 29.0479 13.3848C28.4502 12.8516 28.1514 12.1777 28.1514 11.3633C28.1514 10.373 28.5264 9.60547 29.2764 9.06055C30.0322 8.50977 31.0928 8.23438 32.458 8.23438H34.04V7.4873C34.04 6.91895 33.8701 6.46777 33.5303 6.13379C33.1904 5.79395 32.6895 5.62402 32.0273 5.62402C31.4473 5.62402 30.9609 5.77051 30.5684 6.06348C30.1758 6.35645 29.9795 6.71094 29.9795 7.12695H28.3447C28.3447 6.65234 28.5117 6.19531 28.8457 5.75586C29.1855 5.31055 29.6426 4.95898 30.2168 4.70117C30.7969 4.44336 31.4326 4.31445 32.124 4.31445C33.2197 4.31445 34.0781 4.58984 34.6992 5.14062C35.3203 5.68555 35.6426 6.43848 35.666 7.39941V11.7764C35.666 12.6494 35.7773 13.3438 36 13.8594V14H34.2949ZM31.5967 12.7607C32.1064 12.7607 32.5898 12.6289 33.0469 12.3652C33.5039 12.1016 33.835 11.7588 34.04 11.3369V9.38574H32.7656C30.7734 9.38574 29.7773 9.96875 29.7773 11.1348C29.7773 11.6445 29.9473 12.043 30.2871 12.3301C30.627 12.6172 31.0635 12.7607 31.5967 12.7607ZM40.4209 2.1875V4.49023H42.1963V5.74707H40.4209V11.6445C40.4209 12.0254 40.5 12.3125 40.6582 12.5059C40.8164 12.6934 41.0859 12.7871 41.4668 12.7871C41.6543 12.7871 41.9121 12.752 42.2402 12.6816V14C41.8125 14.1172 41.3965 14.1758 40.9922 14.1758C40.2656 14.1758 39.7178 13.9561 39.3486 13.5166C38.9795 13.0771 38.7949 12.4531 38.7949 11.6445V5.74707H37.0635V4.49023H38.7949V2.1875H40.4209ZM48.0498 14.1758C46.7607 14.1758 45.7119 13.7539 44.9033 12.9102C44.0947 12.0605 43.6904 10.9268 43.6904 9.50879V9.20996C43.6904 8.2666 43.8691 7.42578 44.2266 6.6875C44.5898 5.94336 45.0938 5.36328 45.7383 4.94727C46.3887 4.52539 47.0918 4.31445 47.8477 4.31445C49.084 4.31445 50.0449 4.72168 50.7305 5.53613C51.416 6.35059 51.7588 7.5166 51.7588 9.03418V9.71094H45.3164C45.3398 10.6484 45.6123 11.4072 46.1338 11.9873C46.6611 12.5615 47.3291 12.8486 48.1377 12.8486C48.7119 12.8486 49.1982 12.7314 49.5967 12.4971C49.9951 12.2627 50.3438 11.9521 50.6426 11.5654L51.6357 12.3389C50.8389 13.5635 49.6436 14.1758 48.0498 14.1758ZM47.8477 5.65039C47.1914 5.65039 46.6406 5.89062 46.1953 6.37109C45.75 6.8457 45.4746 7.51367 45.3691 8.375H50.1328V8.25195C50.0859 7.42578 49.8633 6.78711 49.4648 6.33594C49.0664 5.87891 48.5273 5.65039 47.8477 5.65039ZM61.2246 11.6182L63.4395 4.49023H65.1797L61.3564 15.4678C60.7646 17.0498 59.8242 17.8408 58.5352 17.8408L58.2275 17.8145L57.6211 17.7002V16.3818L58.0605 16.417C58.6113 16.417 59.0391 16.3057 59.3438 16.083C59.6543 15.8604 59.9092 15.4531 60.1084 14.8613L60.4688 13.8945L57.0762 4.49023H58.8516L61.2246 11.6182ZM66.0674 9.15723C66.0674 8.22559 66.249 7.3877 66.6123 6.64355C66.9814 5.89941 67.4912 5.3252 68.1416 4.9209C68.7979 4.5166 69.5449 4.31445 70.3828 4.31445C71.6777 4.31445 72.7236 4.7627 73.5205 5.65918C74.3232 6.55566 74.7246 7.74805 74.7246 9.23633V9.35059C74.7246 10.2764 74.5459 11.1084 74.1885 11.8467C73.8369 12.5791 73.3301 13.1504 72.668 13.5605C72.0117 13.9707 71.2559 14.1758 70.4004 14.1758C69.1113 14.1758 68.0654 13.7275 67.2627 12.8311C66.4658 11.9346 66.0674 10.748 66.0674 9.27148V9.15723ZM67.7021 9.35059C67.7021 10.4053 67.9453 11.252 68.4316 11.8906C68.9238 12.5293 69.5801 12.8486 70.4004 12.8486C71.2266 12.8486 71.8828 12.5264 72.3691 11.8818C72.8555 11.2314 73.0986 10.3232 73.0986 9.15723C73.0986 8.11426 72.8496 7.27051 72.3516 6.62598C71.8594 5.97559 71.2031 5.65039 70.3828 5.65039C69.5801 5.65039 68.9326 5.96973 68.4404 6.6084C67.9482 7.24707 67.7021 8.16113 67.7021 9.35059ZM82.6348 13.0596C82.002 13.8037 81.0732 14.1758 79.8486 14.1758C78.835 14.1758 78.0615 13.8828 77.5283 13.2969C77.001 12.7051 76.7344 11.832 76.7285 10.6777V4.49023H78.3545V10.6338C78.3545 12.0752 78.9404 12.7959 80.1123 12.7959C81.3545 12.7959 82.1807 12.333 82.5908 11.4072V4.49023H84.2168V14H82.6699L82.6348 13.0596ZM91.292 5.94922C91.0459 5.9082 90.7793 5.8877 90.4922 5.8877C89.4258 5.8877 88.7021 6.3418 88.3213 7.25V14H86.6953V4.49023H88.2773L88.3037 5.58887C88.8369 4.73926 89.5928 4.31445 90.5713 4.31445C90.8877 4.31445 91.1279 4.35547 91.292 4.4375V5.94922ZM103.131 14C103.037 13.8125 102.961 13.4785 102.902 12.998C102.146 13.7832 101.244 14.1758 100.195 14.1758C99.2578 14.1758 98.4873 13.9121 97.8838 13.3848C97.2861 12.8516 96.9873 12.1777 96.9873 11.3633C96.9873 10.373 97.3623 9.60547 98.1123 9.06055C98.8682 8.50977 99.9287 8.23438 101.294 8.23438H102.876V7.4873C102.876 6.91895 102.706 6.46777 102.366 6.13379C102.026 5.79395 101.525 5.62402 100.863 5.62402C100.283 5.62402 99.7969 5.77051 99.4043 6.06348C99.0117 6.35645 98.8154 6.71094 98.8154 7.12695H97.1807C97.1807 6.65234 97.3477 6.19531 97.6816 5.75586C98.0215 5.31055 98.4785 4.95898 99.0527 4.70117C99.6328 4.44336 100.269 4.31445 100.96 4.31445C102.056 4.31445 102.914 4.58984 103.535 5.14062C104.156 5.68555 104.479 6.43848 104.502 7.39941V11.7764C104.502 12.6494 104.613 13.3438 104.836 13.8594V14H103.131ZM100.433 12.7607C100.942 12.7607 101.426 12.6289 101.883 12.3652C102.34 12.1016 102.671 11.7588 102.876 11.3369V9.38574H101.602C99.6094 9.38574 98.6133 9.96875 98.6133 11.1348C98.6133 11.6445 98.7832 12.043 99.123 12.3301C99.4629 12.6172 99.8994 12.7607 100.433 12.7607ZM110.865 12.8486C111.445 12.8486 111.952 12.6729 112.386 12.3213C112.819 11.9697 113.06 11.5303 113.106 11.0029H114.645C114.615 11.5479 114.428 12.0664 114.082 12.5586C113.736 13.0508 113.273 13.4434 112.693 13.7363C112.119 14.0293 111.51 14.1758 110.865 14.1758C109.57 14.1758 108.539 13.7451 107.771 12.8838C107.01 12.0166 106.629 10.833 106.629 9.33301V9.06055C106.629 8.13477 106.799 7.31152 107.139 6.59082C107.479 5.87012 107.965 5.31055 108.598 4.91211C109.236 4.51367 109.989 4.31445 110.856 4.31445C111.923 4.31445 112.808 4.63379 113.511 5.27246C114.22 5.91113 114.598 6.74023 114.645 7.75977H113.106C113.06 7.14453 112.825 6.64062 112.403 6.24805C111.987 5.84961 111.472 5.65039 110.856 5.65039C110.03 5.65039 109.389 5.94922 108.932 6.54688C108.48 7.13867 108.255 7.99707 108.255 9.12207V9.42969C108.255 10.5254 108.48 11.3691 108.932 11.9609C109.383 12.5527 110.027 12.8486 110.865 12.8486ZM120.287 12.8486C120.867 12.8486 121.374 12.6729 121.808 12.3213C122.241 11.9697 122.481 11.5303 122.528 11.0029H124.066C124.037 11.5479 123.85 12.0664 123.504 12.5586C123.158 13.0508 122.695 13.4434 122.115 13.7363C121.541 14.0293 120.932 14.1758 120.287 14.1758C118.992 14.1758 117.961 13.7451 117.193 12.8838C116.432 12.0166 116.051 10.833 116.051 9.33301V9.06055C116.051 8.13477 116.221 7.31152 116.561 6.59082C116.9 5.87012 117.387 5.31055 118.02 4.91211C118.658 4.51367 119.411 4.31445 120.278 4.31445C121.345 4.31445 122.229 4.63379 122.933 5.27246C123.642 5.91113 124.02 6.74023 124.066 7.75977H122.528C122.481 7.14453 122.247 6.64062 121.825 6.24805C121.409 5.84961 120.894 5.65039 120.278 5.65039C119.452 5.65039 118.811 5.94922 118.354 6.54688C117.902 7.13867 117.677 7.99707 117.677 9.12207V9.42969C117.677 10.5254 117.902 11.3691 118.354 11.9609C118.805 12.5527 119.449 12.8486 120.287 12.8486ZM125.464 9.15723C125.464 8.22559 125.646 7.3877 126.009 6.64355C126.378 5.89941 126.888 5.3252 127.538 4.9209C128.194 4.5166 128.941 4.31445 129.779 4.31445C131.074 4.31445 132.12 4.7627 132.917 5.65918C133.72 6.55566 134.121 7.74805 134.121 9.23633V9.35059C134.121 10.2764 133.942 11.1084 133.585 11.8467C133.233 12.5791 132.727 13.1504 132.064 13.5605C131.408 13.9707 130.652 14.1758 129.797 14.1758C128.508 14.1758 127.462 13.7275 126.659 12.8311C125.862 11.9346 125.464 10.748 125.464 9.27148V9.15723ZM127.099 9.35059C127.099 10.4053 127.342 11.252 127.828 11.8906C128.32 12.5293 128.977 12.8486 129.797 12.8486C130.623 12.8486 131.279 12.5264 131.766 11.8818C132.252 11.2314 132.495 10.3232 132.495 9.15723C132.495 8.11426 132.246 7.27051 131.748 6.62598C131.256 5.97559 130.6 5.65039 129.779 5.65039C128.977 5.65039 128.329 5.96973 127.837 6.6084C127.345 7.24707 127.099 8.16113 127.099 9.35059ZM142.031 13.0596C141.398 13.8037 140.47 14.1758 139.245 14.1758C138.231 14.1758 137.458 13.8828 136.925 13.2969C136.397 12.7051 136.131 11.832 136.125 10.6777V4.49023H137.751V10.6338C137.751 12.0752 138.337 12.7959 139.509 12.7959C140.751 12.7959 141.577 12.333 141.987 11.4072V4.49023H143.613V14H142.066L142.031 13.0596ZM147.63 4.49023L147.683 5.68555C148.409 4.77148 149.358 4.31445 150.53 4.31445C152.54 4.31445 153.554 5.44824 153.571 7.71582V14H151.945V7.70703C151.939 7.02148 151.781 6.51465 151.471 6.18652C151.166 5.8584 150.688 5.69434 150.038 5.69434C149.511 5.69434 149.048 5.83496 148.649 6.11621C148.251 6.39746 147.94 6.7666 147.718 7.22363V14H146.092V4.49023H147.63ZM158.229 2.1875V4.49023H160.005V5.74707H158.229V11.6445C158.229 12.0254 158.309 12.3125 158.467 12.5059C158.625 12.6934 158.895 12.7871 159.275 12.7871C159.463 12.7871 159.721 12.752 160.049 12.6816V14C159.621 14.1172 159.205 14.1758 158.801 14.1758C158.074 14.1758 157.526 13.9561 157.157 13.5166C156.788 13.0771 156.604 12.4531 156.604 11.6445V5.74707H154.872V4.49023H156.604V2.1875H158.229Z" fill="#FF5C5C"/>
<path d="M172.248 14C172.154 13.8125 172.078 13.4785 172.02 12.998C171.264 13.7832 170.361 14.1758 169.312 14.1758C168.375 14.1758 167.604 13.9121 167.001 13.3848C166.403 12.8516 166.104 12.1777 166.104 11.3633C166.104 10.373 166.479 9.60547 167.229 9.06055C167.985 8.50977 169.046 8.23438 170.411 8.23438H171.993V7.4873C171.993 6.91895 171.823 6.46777 171.483 6.13379C171.144 5.79395 170.643 5.62402 169.98 5.62402C169.4 5.62402 168.914 5.77051 168.521 6.06348C168.129 6.35645 167.933 6.71094 167.933 7.12695H166.298C166.298 6.65234 166.465 6.19531 166.799 5.75586C167.139 5.31055 167.596 4.95898 168.17 4.70117C168.75 4.44336 169.386 4.31445 170.077 4.31445C171.173 4.31445 172.031 4.58984 172.652 5.14062C173.273 5.68555 173.596 6.43848 173.619 7.39941V11.7764C173.619 12.6494 173.73 13.3438 173.953 13.8594V14H172.248ZM169.55 12.7607C170.06 12.7607 170.543 12.6289 171 12.3652C171.457 12.1016 171.788 11.7588 171.993 11.3369V9.38574H170.719C168.727 9.38574 167.73 9.96875 167.73 11.1348C167.73 11.6445 167.9 12.043 168.24 12.3301C168.58 12.6172 169.017 12.7607 169.55 12.7607ZM177.706 4.49023L177.759 5.68555C178.485 4.77148 179.435 4.31445 180.606 4.31445C182.616 4.31445 183.63 5.44824 183.647 7.71582V14H182.021V7.70703C182.016 7.02148 181.857 6.51465 181.547 6.18652C181.242 5.8584 180.765 5.69434 180.114 5.69434C179.587 5.69434 179.124 5.83496 178.726 6.11621C178.327 6.39746 178.017 6.7666 177.794 7.22363V14H176.168V4.49023H177.706ZM185.704 9.16602C185.704 7.70703 186.05 6.53516 186.741 5.65039C187.433 4.75977 188.338 4.31445 189.457 4.31445C190.57 4.31445 191.452 4.69531 192.103 5.45703V0.5H193.729V14H192.234L192.155 12.9805C191.505 13.7773 190.6 14.1758 189.439 14.1758C188.338 14.1758 187.438 13.7246 186.741 12.8223C186.05 11.9199 185.704 10.7422 185.704 9.28906V9.16602ZM187.33 9.35059C187.33 10.4287 187.553 11.2725 187.998 11.8818C188.443 12.4912 189.059 12.7959 189.844 12.7959C190.875 12.7959 191.628 12.333 192.103 11.4072V7.03906C191.616 6.14258 190.869 5.69434 189.861 5.69434C189.064 5.69434 188.443 6.00195 187.998 6.61719C187.553 7.23242 187.33 8.14355 187.33 9.35059ZM202.351 5.6416C203.071 4.75684 204.009 4.31445 205.163 4.31445C207.173 4.31445 208.187 5.44824 208.204 7.71582V14H206.578V7.70703C206.572 7.02148 206.414 6.51465 206.104 6.18652C205.799 5.8584 205.321 5.69434 204.671 5.69434C204.144 5.69434 203.681 5.83496 203.282 6.11621C202.884 6.39746 202.573 6.7666 202.351 7.22363V14H200.725V0.5H202.351V5.6416ZM214.585 14.1758C213.296 14.1758 212.247 13.7539 211.438 12.9102C210.63 12.0605 210.226 10.9268 210.226 9.50879V9.20996C210.226 8.2666 210.404 7.42578 210.762 6.6875C211.125 5.94336 211.629 5.36328 212.273 4.94727C212.924 4.52539 213.627 4.31445 214.383 4.31445C215.619 4.31445 216.58 4.72168 217.266 5.53613C217.951 6.35059 218.294 7.5166 218.294 9.03418V9.71094H211.852C211.875 10.6484 212.147 11.4072 212.669 11.9873C213.196 12.5615 213.864 12.8486 214.673 12.8486C215.247 12.8486 215.733 12.7314 216.132 12.4971C216.53 12.2627 216.879 11.9521 217.178 11.5654L218.171 12.3389C217.374 13.5635 216.179 14.1758 214.585 14.1758ZM214.383 5.65039C213.727 5.65039 213.176 5.89062 212.73 6.37109C212.285 6.8457 212.01 7.51367 211.904 8.375H216.668V8.25195C216.621 7.42578 216.398 6.78711 216 6.33594C215.602 5.87891 215.062 5.65039 214.383 5.65039ZM221.95 14H220.324V0.5H221.95V14ZM232.594 9.35059C232.594 10.7979 232.263 11.9639 231.601 12.8486C230.938 13.7334 230.042 14.1758 228.911 14.1758C227.757 14.1758 226.849 13.8096 226.187 13.0771V17.6562H224.561V4.49023H226.046L226.125 5.54492C226.787 4.72461 227.707 4.31445 228.885 4.31445C230.027 4.31445 230.93 4.74512 231.592 5.60645C232.26 6.46777 232.594 7.66602 232.594 9.20117V9.35059ZM230.968 9.16602C230.968 8.09375 230.739 7.24707 230.282 6.62598C229.825 6.00488 229.198 5.69434 228.401 5.69434C227.417 5.69434 226.679 6.13086 226.187 7.00391V11.5479C226.673 12.415 227.417 12.8486 228.419 12.8486C229.198 12.8486 229.816 12.541 230.273 11.9258C230.736 11.3047 230.968 10.3848 230.968 9.16602ZM245.004 13.0596C244.371 13.8037 243.442 14.1758 242.218 14.1758C241.204 14.1758 240.431 13.8828 239.897 13.2969C239.37 12.7051 239.104 11.832 239.098 10.6777V4.49023H240.724V10.6338C240.724 12.0752 241.31 12.7959 242.481 12.7959C243.724 12.7959 244.55 12.333 244.96 11.4072V4.49023H246.586V14H245.039L245.004 13.0596ZM254.602 11.4775C254.602 11.0381 254.435 10.6982 254.101 10.458C253.772 10.2119 253.195 10.001 252.369 9.8252C251.549 9.64941 250.896 9.43848 250.409 9.19238C249.929 8.94629 249.571 8.65332 249.337 8.31348C249.108 7.97363 248.994 7.56934 248.994 7.10059C248.994 6.32129 249.322 5.66211 249.979 5.12305C250.641 4.58398 251.484 4.31445 252.51 4.31445C253.588 4.31445 254.461 4.59277 255.129 5.14941C255.803 5.70605 256.14 6.41797 256.14 7.28516H254.505C254.505 6.83984 254.314 6.45605 253.934 6.13379C253.559 5.81152 253.084 5.65039 252.51 5.65039C251.918 5.65039 251.455 5.7793 251.121 6.03711C250.787 6.29492 250.62 6.63184 250.62 7.04785C250.62 7.44043 250.775 7.73633 251.086 7.93555C251.396 8.13477 251.956 8.3252 252.765 8.50684C253.579 8.68848 254.238 8.90527 254.742 9.15723C255.246 9.40918 255.618 9.71387 255.858 10.0713C256.104 10.4229 256.228 10.8535 256.228 11.3633C256.228 12.2129 255.888 12.8955 255.208 13.4111C254.528 13.9209 253.646 14.1758 252.562 14.1758C251.801 14.1758 251.127 14.041 250.541 13.7715C249.955 13.502 249.495 13.127 249.161 12.6465C248.833 12.1602 248.669 11.6357 248.669 11.0732H250.295C250.324 11.6182 250.541 12.0518 250.945 12.374C251.355 12.6904 251.895 12.8486 252.562 12.8486C253.178 12.8486 253.67 12.7256 254.039 12.4795C254.414 12.2275 254.602 11.8936 254.602 11.4775ZM464.168 4.49023L464.212 5.54492C464.909 4.72461 465.85 4.31445 467.033 4.31445C468.363 4.31445 469.269 4.82422 469.749 5.84375C470.065 5.38672 470.476 5.01758 470.979 4.73633C471.489 4.45508 472.09 4.31445 472.781 4.31445C474.867 4.31445 475.928 5.41895 475.963 7.62793V14H474.337V7.72461C474.337 7.04492 474.182 6.53809 473.871 6.2041C473.561 5.86426 473.039 5.69434 472.307 5.69434C471.703 5.69434 471.202 5.87598 470.804 6.23926C470.405 6.59668 470.174 7.08008 470.109 7.68945V14H468.475V7.76855C468.475 6.38574 467.798 5.69434 466.444 5.69434C465.378 5.69434 464.648 6.14844 464.256 7.05664V14H462.63V4.49023H464.168ZM477.993 9.15723C477.993 8.22559 478.175 7.3877 478.538 6.64355C478.907 5.89941 479.417 5.3252 480.067 4.9209C480.724 4.5166 481.471 4.31445 482.309 4.31445C483.604 4.31445 484.649 4.7627 485.446 5.65918C486.249 6.55566 486.65 7.74805 486.65 9.23633V9.35059C486.65 10.2764 486.472 11.1084 486.114 11.8467C485.763 12.5791 485.256 13.1504 484.594 13.5605C483.938 13.9707 483.182 14.1758 482.326 14.1758C481.037 14.1758 479.991 13.7275 479.188 12.8311C478.392 11.9346 477.993 10.748 477.993 9.27148V9.15723ZM479.628 9.35059C479.628 10.4053 479.871 11.252 480.357 11.8906C480.85 12.5293 481.506 12.8486 482.326 12.8486C483.152 12.8486 483.809 12.5264 484.295 11.8818C484.781 11.2314 485.024 10.3232 485.024 9.15723C485.024 8.11426 484.775 7.27051 484.277 6.62598C483.785 5.97559 483.129 5.65039 482.309 5.65039C481.506 5.65039 480.858 5.96973 480.366 6.6084C479.874 7.24707 479.628 8.16113 479.628 9.35059ZM493.286 5.94922C493.04 5.9082 492.773 5.8877 492.486 5.8877C491.42 5.8877 490.696 6.3418 490.315 7.25V14H488.689V4.49023H490.271L490.298 5.58887C490.831 4.73926 491.587 4.31445 492.565 4.31445C492.882 4.31445 493.122 4.35547 493.286 4.4375V5.94922ZM498.56 14.1758C497.271 14.1758 496.222 13.7539 495.413 12.9102C494.604 12.0605 494.2 10.9268 494.2 9.50879V9.20996C494.2 8.2666 494.379 7.42578 494.736 6.6875C495.1 5.94336 495.604 5.36328 496.248 4.94727C496.898 4.52539 497.602 4.31445 498.357 4.31445C499.594 4.31445 500.555 4.72168 501.24 5.53613C501.926 6.35059 502.269 7.5166 502.269 9.03418V9.71094H495.826C495.85 10.6484 496.122 11.4072 496.644 11.9873C497.171 12.5615 497.839 12.8486 498.647 12.8486C499.222 12.8486 499.708 12.7314 500.106 12.4971C500.505 12.2627 500.854 11.9521 501.152 11.5654L502.146 12.3389C501.349 13.5635 500.153 14.1758 498.56 14.1758ZM498.357 5.65039C497.701 5.65039 497.15 5.89062 496.705 6.37109C496.26 6.8457 495.984 7.51367 495.879 8.375H500.643V8.25195C500.596 7.42578 500.373 6.78711 499.975 6.33594C499.576 5.87891 499.037 5.65039 498.357 5.65039ZM7.10156 35C7.00781 34.8125 6.93164 34.4785 6.87305 33.998C6.11719 34.7832 5.21484 35.1758 4.16602 35.1758C3.22852 35.1758 2.45801 34.9121 1.85449 34.3848C1.25684 33.8516 0.958008 33.1777 0.958008 32.3633C0.958008 31.373 1.33301 30.6055 2.08301 30.0605C2.83887 29.5098 3.89941 29.2344 5.26465 29.2344H6.84668V28.4873C6.84668 27.9189 6.67676 27.4678 6.33691 27.1338C5.99707 26.7939 5.49609 26.624 4.83398 26.624C4.25391 26.624 3.76758 26.7705 3.375 27.0635C2.98242 27.3564 2.78613 27.7109 2.78613 28.127H1.15137C1.15137 27.6523 1.31836 27.1953 1.65234 26.7559C1.99219 26.3105 2.44922 25.959 3.02344 25.7012C3.60352 25.4434 4.23926 25.3145 4.93066 25.3145C6.02637 25.3145 6.88477 25.5898 7.50586 26.1406C8.12695 26.6855 8.44922 27.4385 8.47266 28.3994V32.7764C8.47266 33.6494 8.58398 34.3438 8.80664 34.8594V35H7.10156ZM4.40332 33.7607C4.91309 33.7607 5.39648 33.6289 5.85352 33.3652C6.31055 33.1016 6.6416 32.7588 6.84668 32.3369V30.3857H5.57227C3.58008 30.3857 2.58398 30.9688 2.58398 32.1348C2.58398 32.6445 2.75391 33.043 3.09375 33.3301C3.43359 33.6172 3.87012 33.7607 4.40332 33.7607ZM14.8359 33.8486C15.416 33.8486 15.9229 33.6729 16.3564 33.3213C16.79 32.9697 17.0303 32.5303 17.0771 32.0029H18.6152C18.5859 32.5479 18.3984 33.0664 18.0527 33.5586C17.707 34.0508 17.2441 34.4434 16.6641 34.7363C16.0898 35.0293 15.4805 35.1758 14.8359 35.1758C13.541 35.1758 12.5098 34.7451 11.7422 33.8838C10.9805 33.0166 10.5996 31.833 10.5996 30.333V30.0605C10.5996 29.1348 10.7695 28.3115 11.1094 27.5908C11.4492 26.8701 11.9355 26.3105 12.5684 25.9121C13.207 25.5137 13.96 25.3145 14.8271 25.3145C15.8936 25.3145 16.7783 25.6338 17.4814 26.2725C18.1904 26.9111 18.5684 27.7402 18.6152 28.7598H17.0771C17.0303 28.1445 16.7959 27.6406 16.374 27.248C15.958 26.8496 15.4424 26.6504 14.8271 26.6504C14.001 26.6504 13.3594 26.9492 12.9023 27.5469C12.4512 28.1387 12.2256 28.9971 12.2256 30.1221V30.4297C12.2256 31.5254 12.4512 32.3691 12.9023 32.9609C13.3535 33.5527 13.998 33.8486 14.8359 33.8486ZM24.2578 33.8486C24.8379 33.8486 25.3447 33.6729 25.7783 33.3213C26.2119 32.9697 26.4521 32.5303 26.499 32.0029H28.0371C28.0078 32.5479 27.8203 33.0664 27.4746 33.5586C27.1289 34.0508 26.666 34.4434 26.0859 34.7363C25.5117 35.0293 24.9023 35.1758 24.2578 35.1758C22.9629 35.1758 21.9316 34.7451 21.1641 33.8838C20.4023 33.0166 20.0215 31.833 20.0215 30.333V30.0605C20.0215 29.1348 20.1914 28.3115 20.5312 27.5908C20.8711 26.8701 21.3574 26.3105 21.9902 25.9121C22.6289 25.5137 23.3818 25.3145 24.249 25.3145C25.3154 25.3145 26.2002 25.6338 26.9033 26.2725C27.6123 26.9111 27.9902 27.7402 28.0371 28.7598H26.499C26.4521 28.1445 26.2178 27.6406 25.7959 27.248C25.3799 26.8496 24.8643 26.6504 24.249 26.6504C23.4229 26.6504 22.7812 26.9492 22.3242 27.5469C21.873 28.1387 21.6475 28.9971 21.6475 30.1221V30.4297C21.6475 31.5254 21.873 32.3691 22.3242 32.9609C22.7754 33.5527 23.4199 33.8486 24.2578 33.8486ZM35.7363 34.0596C35.1035 34.8037 34.1748 35.1758 32.9502 35.1758C31.9365 35.1758 31.1631 34.8828 30.6299 34.2969C30.1025 33.7051 29.8359 32.832 29.8301 31.6777V25.4902H31.4561V31.6338C31.4561 33.0752 32.042 33.7959 33.2139 33.7959C34.4561 33.7959 35.2822 33.333 35.6924 32.4072V25.4902H37.3184V35H35.7715L35.7363 34.0596ZM44.3936 26.9492C44.1475 26.9082 43.8809 26.8877 43.5938 26.8877C42.5273 26.8877 41.8037 27.3418 41.4229 28.25V35H39.7969V25.4902H41.3789L41.4053 26.5889C41.9385 25.7393 42.6943 25.3145 43.6729 25.3145C43.9893 25.3145 44.2295 25.3555 44.3936 25.4375V26.9492ZM51.416 35C51.3223 34.8125 51.2461 34.4785 51.1875 33.998C50.4316 34.7832 49.5293 35.1758 48.4805 35.1758C47.543 35.1758 46.7725 34.9121 46.1689 34.3848C45.5713 33.8516 45.2725 33.1777 45.2725 32.3633C45.2725 31.373 45.6475 30.6055 46.3975 30.0605C47.1533 29.5098 48.2139 29.2344 49.5791 29.2344H51.1611V28.4873C51.1611 27.9189 50.9912 27.4678 50.6514 27.1338C50.3115 26.7939 49.8105 26.624 49.1484 26.624C48.5684 26.624 48.082 26.7705 47.6895 27.0635C47.2969 27.3564 47.1006 27.7109 47.1006 28.127H45.4658C45.4658 27.6523 45.6328 27.1953 45.9668 26.7559C46.3066 26.3105 46.7637 25.959 47.3379 25.7012C47.918 25.4434 48.5537 25.3145 49.2451 25.3145C50.3408 25.3145 51.1992 25.5898 51.8203 26.1406C52.4414 26.6855 52.7637 27.4385 52.7871 28.3994V32.7764C52.7871 33.6494 52.8984 34.3438 53.1211 34.8594V35H51.416ZM48.7178 33.7607C49.2275 33.7607 49.7109 33.6289 50.168 33.3652C50.625 33.1016 50.9561 32.7588 51.1611 32.3369V30.3857H49.8867C47.8945 30.3857 46.8984 30.9688 46.8984 32.1348C46.8984 32.6445 47.0684 33.043 47.4082 33.3301C47.748 33.6172 48.1846 33.7607 48.7178 33.7607ZM57.542 23.1875V25.4902H59.3174V26.7471H57.542V32.6445C57.542 33.0254 57.6211 33.3125 57.7793 33.5059C57.9375 33.6934 58.207 33.7871 58.5879 33.7871C58.7754 33.7871 59.0332 33.752 59.3613 33.6816V35C58.9336 35.1172 58.5176 35.1758 58.1133 35.1758C57.3867 35.1758 56.8389 34.9561 56.4697 34.5166C56.1006 34.0771 55.916 33.4531 55.916 32.6445V26.7471H54.1846V25.4902H55.916V23.1875H57.542ZM65.1709 35.1758C63.8818 35.1758 62.833 34.7539 62.0244 33.9102C61.2158 33.0605 60.8115 31.9268 60.8115 30.5088V30.21C60.8115 29.2666 60.9902 28.4258 61.3477 27.6875C61.7109 26.9434 62.2148 26.3633 62.8594 25.9473C63.5098 25.5254 64.2129 25.3145 64.9688 25.3145C66.2051 25.3145 67.166 25.7217 67.8516 26.5361C68.5371 27.3506 68.8799 28.5166 68.8799 30.0342V30.7109H62.4375C62.4609 31.6484 62.7334 32.4072 63.2549 32.9873C63.7822 33.5615 64.4502 33.8486 65.2588 33.8486C65.833 33.8486 66.3193 33.7314 66.7178 33.4971C67.1162 33.2627 67.4648 32.9521 67.7637 32.5654L68.7568 33.3389C67.96 34.5635 66.7646 35.1758 65.1709 35.1758ZM64.9688 26.6504C64.3125 26.6504 63.7617 26.8906 63.3164 27.3711C62.8711 27.8457 62.5957 28.5137 62.4902 29.375H67.2539V29.252C67.207 28.4258 66.9844 27.7871 66.5859 27.3359C66.1875 26.8789 65.6484 26.6504 64.9688 26.6504ZM72.5361 35H70.9102V21.5H72.5361V35ZM78.2578 32.6182L80.4727 25.4902H82.2129L78.3896 36.4678C77.7979 38.0498 76.8574 38.8408 75.5684 38.8408L75.2607 38.8145L74.6543 38.7002V37.3818L75.0938 37.417C75.6445 37.417 76.0723 37.3057 76.377 37.083C76.6875 36.8604 76.9424 36.4531 77.1416 35.8613L77.502 34.8945L74.1094 25.4902H75.8848L78.2578 32.6182ZM82.7578 34.1475C82.7578 33.8662 82.8398 33.6318 83.0039 33.4443C83.1738 33.2568 83.4258 33.1631 83.7598 33.1631C84.0938 33.1631 84.3457 33.2568 84.5156 33.4443C84.6914 33.6318 84.7793 33.8662 84.7793 34.1475C84.7793 34.417 84.6914 34.6426 84.5156 34.8242C84.3457 35.0059 84.0938 35.0967 83.7598 35.0967C83.4258 35.0967 83.1738 35.0059 83.0039 34.8242C82.8398 34.6426 82.7578 34.417 82.7578 34.1475ZM92.1885 35V22.2031H96.3721C97.7607 22.2031 98.8037 22.4902 99.501 23.0645C100.204 23.6387 100.556 24.4883 100.556 25.6133C100.556 26.2109 100.386 26.7412 100.046 27.2041C99.7061 27.6611 99.2432 28.0156 98.6572 28.2676C99.3486 28.4609 99.8936 28.8301 100.292 29.375C100.696 29.9141 100.898 30.5586 100.898 31.3086C100.898 32.457 100.526 33.3594 99.7822 34.0156C99.0381 34.6719 97.9863 35 96.627 35H92.1885ZM93.876 29.0146V33.6201H96.6621C97.4473 33.6201 98.0654 33.418 98.5166 33.0137C98.9736 32.6035 99.2021 32.041 99.2021 31.3262C99.2021 29.7852 98.3643 29.0146 96.6885 29.0146H93.876ZM93.876 27.6611H96.4248C97.1631 27.6611 97.752 27.4766 98.1914 27.1074C98.6367 26.7383 98.8594 26.2373 98.8594 25.6045C98.8594 24.9014 98.6543 24.3916 98.2441 24.0752C97.834 23.7529 97.21 23.5918 96.3721 23.5918H93.876V27.6611ZM106.26 32.6182L108.475 25.4902H110.215L106.392 36.4678C105.8 38.0498 104.859 38.8408 103.57 38.8408L103.263 38.8145L102.656 38.7002V37.3818L103.096 37.417C103.646 37.417 104.074 37.3057 104.379 37.083C104.689 36.8604 104.944 36.4531 105.144 35.8613L105.504 34.8945L102.111 25.4902H103.887L106.26 32.6182ZM122.01 34.0596C121.377 34.8037 120.448 35.1758 119.224 35.1758C118.21 35.1758 117.437 34.8828 116.903 34.2969C116.376 33.7051 116.109 32.832 116.104 31.6777V25.4902H117.729V31.6338C117.729 33.0752 118.315 33.7959 119.487 33.7959C120.729 33.7959 121.556 33.333 121.966 32.4072V25.4902H123.592V35H122.045L122.01 34.0596ZM131.607 32.4775C131.607 32.0381 131.44 31.6982 131.106 31.458C130.778 31.2119 130.201 31.001 129.375 30.8252C128.555 30.6494 127.901 30.4385 127.415 30.1924C126.935 29.9463 126.577 29.6533 126.343 29.3135C126.114 28.9736 126 28.5693 126 28.1006C126 27.3213 126.328 26.6621 126.984 26.123C127.646 25.584 128.49 25.3145 129.516 25.3145C130.594 25.3145 131.467 25.5928 132.135 26.1494C132.809 26.7061 133.146 27.418 133.146 28.2852H131.511C131.511 27.8398 131.32 27.4561 130.939 27.1338C130.564 26.8115 130.09 26.6504 129.516 26.6504C128.924 26.6504 128.461 26.7793 128.127 27.0371C127.793 27.2949 127.626 27.6318 127.626 28.0479C127.626 28.4404 127.781 28.7363 128.092 28.9355C128.402 29.1348 128.962 29.3252 129.771 29.5068C130.585 29.6885 131.244 29.9053 131.748 30.1572C132.252 30.4092 132.624 30.7139 132.864 31.0713C133.11 31.4229 133.233 31.8535 133.233 32.3633C133.233 33.2129 132.894 33.8955 132.214 34.4111C131.534 34.9209 130.652 35.1758 129.568 35.1758C128.807 35.1758 128.133 35.041 127.547 34.7715C126.961 34.502 126.501 34.127 126.167 33.6465C125.839 33.1602 125.675 32.6357 125.675 32.0732H127.301C127.33 32.6182 127.547 33.0518 127.951 33.374C128.361 33.6904 128.9 33.8486 129.568 33.8486C130.184 33.8486 130.676 33.7256 131.045 33.4795C131.42 33.2275 131.607 32.8936 131.607 32.4775ZM137.118 35H135.492V25.4902H137.118V35ZM135.36 22.9678C135.36 22.7041 135.439 22.4814 135.598 22.2998C135.762 22.1182 136.002 22.0273 136.318 22.0273C136.635 22.0273 136.875 22.1182 137.039 22.2998C137.203 22.4814 137.285 22.7041 137.285 22.9678C137.285 23.2314 137.203 23.4512 137.039 23.627C136.875 23.8027 136.635 23.8906 136.318 23.8906C136.002 23.8906 135.762 23.8027 135.598 23.627C135.439 23.4512 135.36 23.2314 135.36 22.9678ZM141.267 25.4902L141.319 26.6855C142.046 25.7715 142.995 25.3145 144.167 25.3145C146.177 25.3145 147.19 26.4482 147.208 28.7158V35H145.582V28.707C145.576 28.0215 145.418 27.5146 145.107 27.1865C144.803 26.8584 144.325 26.6943 143.675 26.6943C143.147 26.6943 142.685 26.835 142.286 27.1162C141.888 27.3975 141.577 27.7666 141.354 28.2236V35H139.729V25.4902H141.267ZM149.273 30.166C149.273 28.6836 149.616 27.5059 150.302 26.6328C150.987 25.7539 151.896 25.3145 153.026 25.3145C154.187 25.3145 155.092 25.7246 155.742 26.5449L155.821 25.4902H157.307V34.7715C157.307 36.002 156.94 36.9717 156.208 37.6807C155.481 38.3896 154.503 38.7441 153.272 38.7441C152.587 38.7441 151.916 38.5977 151.26 38.3047C150.604 38.0117 150.103 37.6104 149.757 37.1006L150.601 36.125C151.298 36.9863 152.15 37.417 153.158 37.417C153.949 37.417 154.564 37.1943 155.004 36.749C155.449 36.3037 155.672 35.6768 155.672 34.8682V34.0508C155.021 34.8008 154.134 35.1758 153.009 35.1758C151.896 35.1758 150.993 34.7275 150.302 33.8311C149.616 32.9346 149.273 31.7129 149.273 30.166ZM150.908 30.3506C150.908 31.4229 151.128 32.2666 151.567 32.8818C152.007 33.4912 152.622 33.7959 153.413 33.7959C154.438 33.7959 155.191 33.3301 155.672 32.3984V28.0566C155.174 27.1484 154.427 26.6943 153.431 26.6943C152.64 26.6943 152.021 27.002 151.576 27.6172C151.131 28.2324 150.908 29.1436 150.908 30.3506ZM166.438 23.1875V25.4902H168.214V26.7471H166.438V32.6445C166.438 33.0254 166.518 33.3125 166.676 33.5059C166.834 33.6934 167.104 33.7871 167.484 33.7871C167.672 33.7871 167.93 33.752 168.258 33.6816V35C167.83 35.1172 167.414 35.1758 167.01 35.1758C166.283 35.1758 165.735 34.9561 165.366 34.5166C164.997 34.0771 164.812 33.4531 164.812 32.6445V26.7471H163.081V25.4902H164.812V23.1875H166.438ZM171.747 26.6416C172.468 25.7568 173.405 25.3145 174.56 25.3145C176.569 25.3145 177.583 26.4482 177.601 28.7158V35H175.975V28.707C175.969 28.0215 175.811 27.5146 175.5 27.1865C175.195 26.8584 174.718 26.6943 174.067 26.6943C173.54 26.6943 173.077 26.835 172.679 27.1162C172.28 27.3975 171.97 27.7666 171.747 28.2236V35H170.121V21.5H171.747V26.6416ZM181.802 35H180.176V25.4902H181.802V35ZM180.044 22.9678C180.044 22.7041 180.123 22.4814 180.281 22.2998C180.445 22.1182 180.686 22.0273 181.002 22.0273C181.318 22.0273 181.559 22.1182 181.723 22.2998C181.887 22.4814 181.969 22.7041 181.969 22.9678C181.969 23.2314 181.887 23.4512 181.723 23.627C181.559 23.8027 181.318 23.8906 181.002 23.8906C180.686 23.8906 180.445 23.8027 180.281 23.627C180.123 23.4512 180.044 23.2314 180.044 22.9678ZM189.949 32.4775C189.949 32.0381 189.782 31.6982 189.448 31.458C189.12 31.2119 188.543 31.001 187.717 30.8252C186.896 30.6494 186.243 30.4385 185.757 30.1924C185.276 29.9463 184.919 29.6533 184.685 29.3135C184.456 28.9736 184.342 28.5693 184.342 28.1006C184.342 27.3213 184.67 26.6621 185.326 26.123C185.988 25.584 186.832 25.3145 187.857 25.3145C188.936 25.3145 189.809 25.5928 190.477 26.1494C191.15 26.7061 191.487 27.418 191.487 28.2852H189.853C189.853 27.8398 189.662 27.4561 189.281 27.1338C188.906 26.8115 188.432 26.6504 187.857 26.6504C187.266 26.6504 186.803 26.7793 186.469 27.0371C186.135 27.2949 185.968 27.6318 185.968 28.0479C185.968 28.4404 186.123 28.7363 186.434 28.9355C186.744 29.1348 187.304 29.3252 188.112 29.5068C188.927 29.6885 189.586 29.9053 190.09 30.1572C190.594 30.4092 190.966 30.7139 191.206 31.0713C191.452 31.4229 191.575 31.8535 191.575 32.3633C191.575 33.2129 191.235 33.8955 190.556 34.4111C189.876 34.9209 188.994 35.1758 187.91 35.1758C187.148 35.1758 186.475 35.041 185.889 34.7715C185.303 34.502 184.843 34.127 184.509 33.6465C184.181 33.1602 184.017 32.6357 184.017 32.0732H185.643C185.672 32.6182 185.889 33.0518 186.293 33.374C186.703 33.6904 187.242 33.8486 187.91 33.8486C188.525 33.8486 189.018 33.7256 189.387 33.4795C189.762 33.2275 189.949 32.8936 189.949 32.4775ZM200.364 23.1875V25.4902H202.14V26.7471H200.364V32.6445C200.364 33.0254 200.443 33.3125 200.602 33.5059C200.76 33.6934 201.029 33.7871 201.41 33.7871C201.598 33.7871 201.855 33.752 202.184 33.6816V35C201.756 35.1172 201.34 35.1758 200.936 35.1758C200.209 35.1758 199.661 34.9561 199.292 34.5166C198.923 34.0771 198.738 33.4531 198.738 32.6445V26.7471H197.007V25.4902H198.738V23.1875H200.364ZM203.44 30.1572C203.44 29.2256 203.622 28.3877 203.985 27.6436C204.354 26.8994 204.864 26.3252 205.515 25.9209C206.171 25.5166 206.918 25.3145 207.756 25.3145C209.051 25.3145 210.097 25.7627 210.894 26.6592C211.696 27.5557 212.098 28.748 212.098 30.2363V30.3506C212.098 31.2764 211.919 32.1084 211.562 32.8467C211.21 33.5791 210.703 34.1504 210.041 34.5605C209.385 34.9707 208.629 35.1758 207.773 35.1758C206.484 35.1758 205.438 34.7275 204.636 33.8311C203.839 32.9346 203.44 31.748 203.44 30.2715V30.1572ZM205.075 30.3506C205.075 31.4053 205.318 32.252 205.805 32.8906C206.297 33.5293 206.953 33.8486 207.773 33.8486C208.6 33.8486 209.256 33.5264 209.742 32.8818C210.229 32.2314 210.472 31.3232 210.472 30.1572C210.472 29.1143 210.223 28.2705 209.725 27.626C209.232 26.9756 208.576 26.6504 207.756 26.6504C206.953 26.6504 206.306 26.9697 205.813 27.6084C205.321 28.2471 205.075 29.1611 205.075 30.3506ZM213.706 30.1572C213.706 29.2256 213.888 28.3877 214.251 27.6436C214.62 26.8994 215.13 26.3252 215.78 25.9209C216.437 25.5166 217.184 25.3145 218.021 25.3145C219.316 25.3145 220.362 25.7627 221.159 26.6592C221.962 27.5557 222.363 28.748 222.363 30.2363V30.3506C222.363 31.2764 222.185 32.1084 221.827 32.8467C221.476 33.5791 220.969 34.1504 220.307 34.5605C219.65 34.9707 218.895 35.1758 218.039 35.1758C216.75 35.1758 215.704 34.7275 214.901 33.8311C214.104 32.9346 213.706 31.748 213.706 30.2715V30.1572ZM215.341 30.3506C215.341 31.4053 215.584 32.252 216.07 32.8906C216.562 33.5293 217.219 33.8486 218.039 33.8486C218.865 33.8486 219.521 33.5264 220.008 32.8818C220.494 32.2314 220.737 31.3232 220.737 30.1572C220.737 29.1143 220.488 28.2705 219.99 27.626C219.498 26.9756 218.842 26.6504 218.021 26.6504C217.219 26.6504 216.571 26.9697 216.079 27.6084C215.587 28.2471 215.341 29.1611 215.341 30.3506ZM226.169 35H224.543V21.5H226.169V35ZM228.727 37.5488L227.804 36.916C228.354 36.1484 228.642 35.3574 228.665 34.543V33.0752H230.256V34.3496C230.256 34.9414 230.109 35.5332 229.816 36.125C229.529 36.7168 229.166 37.1914 228.727 37.5488ZM239.889 32.6182L242.104 25.4902H243.844L240.021 36.4678C239.429 38.0498 238.488 38.8408 237.199 38.8408L236.892 38.8145L236.285 38.7002V37.3818L236.725 37.417C237.275 37.417 237.703 37.3057 238.008 37.083C238.318 36.8604 238.573 36.4531 238.772 35.8613L239.133 34.8945L235.74 25.4902H237.516L239.889 32.6182ZM244.731 30.1572C244.731 29.2256 244.913 28.3877 245.276 27.6436C245.646 26.8994 246.155 26.3252 246.806 25.9209C247.462 25.5166 248.209 25.3145 249.047 25.3145C250.342 25.3145 251.388 25.7627 252.185 26.6592C252.987 27.5557 253.389 28.748 253.389 30.2363V30.3506C253.389 31.2764 253.21 32.1084 252.853 32.8467C252.501 33.5791 251.994 34.1504 251.332 34.5605C250.676 34.9707 249.92 35.1758 249.064 35.1758C247.775 35.1758 246.729 34.7275 245.927 33.8311C245.13 32.9346 244.731 31.748 244.731 30.2715V30.1572ZM246.366 30.3506C246.366 31.4053 246.609 32.252 247.096 32.8906C247.588 33.5293 248.244 33.8486 249.064 33.8486C249.891 33.8486 250.547 33.5264 251.033 32.8818C251.52 32.2314 251.763 31.3232 251.763 30.1572C251.763 29.1143 251.514 28.2705 251.016 27.626C250.523 26.9756 249.867 26.6504 249.047 26.6504C248.244 26.6504 247.597 26.9697 247.104 27.6084C246.612 28.2471 246.366 29.1611 246.366 30.3506ZM261.299 34.0596C260.666 34.8037 259.737 35.1758 258.513 35.1758C257.499 35.1758 256.726 34.8828 256.192 34.2969C255.665 33.7051 255.398 32.832 255.393 31.6777V25.4902H257.019V31.6338C257.019 33.0752 257.604 33.7959 258.776 33.7959C260.019 33.7959 260.845 33.333 261.255 32.4072V25.4902H262.881V35H261.334L261.299 34.0596ZM275.695 35C275.602 34.8125 275.525 34.4785 275.467 33.998C274.711 34.7832 273.809 35.1758 272.76 35.1758C271.822 35.1758 271.052 34.9121 270.448 34.3848C269.851 33.8516 269.552 33.1777 269.552 32.3633C269.552 31.373 269.927 30.6055 270.677 30.0605C271.433 29.5098 272.493 29.2344 273.858 29.2344H275.44V28.4873C275.44 27.9189 275.271 27.4678 274.931 27.1338C274.591 26.7939 274.09 26.624 273.428 26.624C272.848 26.624 272.361 26.7705 271.969 27.0635C271.576 27.3564 271.38 27.7109 271.38 28.127H269.745C269.745 27.6523 269.912 27.1953 270.246 26.7559C270.586 26.3105 271.043 25.959 271.617 25.7012C272.197 25.4434 272.833 25.3145 273.524 25.3145C274.62 25.3145 275.479 25.5898 276.1 26.1406C276.721 26.6855 277.043 27.4385 277.066 28.3994V32.7764C277.066 33.6494 277.178 34.3438 277.4 34.8594V35H275.695ZM272.997 33.7607C273.507 33.7607 273.99 33.6289 274.447 33.3652C274.904 33.1016 275.235 32.7588 275.44 32.3369V30.3857H274.166C272.174 30.3857 271.178 30.9688 271.178 32.1348C271.178 32.6445 271.348 33.043 271.688 33.3301C272.027 33.6172 272.464 33.7607 272.997 33.7607ZM284.212 26.9492C283.966 26.9082 283.699 26.8877 283.412 26.8877C282.346 26.8877 281.622 27.3418 281.241 28.25V35H279.615V25.4902H281.197L281.224 26.5889C281.757 25.7393 282.513 25.3145 283.491 25.3145C283.808 25.3145 284.048 25.3555 284.212 25.4375V26.9492ZM289.485 35.1758C288.196 35.1758 287.147 34.7539 286.339 33.9102C285.53 33.0605 285.126 31.9268 285.126 30.5088V30.21C285.126 29.2666 285.305 28.4258 285.662 27.6875C286.025 26.9434 286.529 26.3633 287.174 25.9473C287.824 25.5254 288.527 25.3145 289.283 25.3145C290.52 25.3145 291.48 25.7217 292.166 26.5361C292.852 27.3506 293.194 28.5166 293.194 30.0342V30.7109H286.752C286.775 31.6484 287.048 32.4072 287.569 32.9873C288.097 33.5615 288.765 33.8486 289.573 33.8486C290.147 33.8486 290.634 33.7314 291.032 33.4971C291.431 33.2627 291.779 32.9521 292.078 32.5654L293.071 33.3389C292.274 34.5635 291.079 35.1758 289.485 35.1758ZM289.283 26.6504C288.627 26.6504 288.076 26.8906 287.631 27.3711C287.186 27.8457 286.91 28.5137 286.805 29.375H291.568V29.252C291.521 28.4258 291.299 27.7871 290.9 27.3359C290.502 26.8789 289.963 26.6504 289.283 26.6504ZM305.42 35C305.326 34.8125 305.25 34.4785 305.191 33.998C304.436 34.7832 303.533 35.1758 302.484 35.1758C301.547 35.1758 300.776 34.9121 300.173 34.3848C299.575 33.8516 299.276 33.1777 299.276 32.3633C299.276 31.373 299.651 30.6055 300.401 30.0605C301.157 29.5098 302.218 29.2344 303.583 29.2344H305.165V28.4873C305.165 27.9189 304.995 27.4678 304.655 27.1338C304.315 26.7939 303.814 26.624 303.152 26.624C302.572 26.624 302.086 26.7705 301.693 27.0635C301.301 27.3564 301.104 27.7109 301.104 28.127H299.47C299.47 27.6523 299.637 27.1953 299.971 26.7559C300.311 26.3105 300.768 25.959 301.342 25.7012C301.922 25.4434 302.558 25.3145 303.249 25.3145C304.345 25.3145 305.203 25.5898 305.824 26.1406C306.445 26.6855 306.768 27.4385 306.791 28.3994V32.7764C306.791 33.6494 306.902 34.3438 307.125 34.8594V35H305.42ZM302.722 33.7607C303.231 33.7607 303.715 33.6289 304.172 33.3652C304.629 33.1016 304.96 32.7588 305.165 32.3369V30.3857H303.891C301.898 30.3857 300.902 30.9688 300.902 32.1348C300.902 32.6445 301.072 33.043 301.412 33.3301C301.752 33.6172 302.188 33.7607 302.722 33.7607ZM317.391 30.3506C317.391 31.8037 317.057 32.9727 316.389 33.8574C315.721 34.7363 314.824 35.1758 313.699 35.1758C312.498 35.1758 311.569 34.751 310.913 33.9014L310.834 35H309.34V21.5H310.966V26.5361C311.622 25.7217 312.527 25.3145 313.682 25.3145C314.836 25.3145 315.741 25.751 316.397 26.624C317.06 27.4971 317.391 28.6924 317.391 30.21V30.3506ZM315.765 30.166C315.765 29.0586 315.551 28.2031 315.123 27.5996C314.695 26.9961 314.08 26.6943 313.277 26.6943C312.205 26.6943 311.435 27.1924 310.966 28.1885V32.3018C311.464 33.2979 312.24 33.7959 313.295 33.7959C314.074 33.7959 314.681 33.4941 315.114 32.8906C315.548 32.2871 315.765 31.3789 315.765 30.166ZM321.214 35H319.588V21.5H321.214V35ZM327.771 35.1758C326.481 35.1758 325.433 34.7539 324.624 33.9102C323.815 33.0605 323.411 31.9268 323.411 30.5088V30.21C323.411 29.2666 323.59 28.4258 323.947 27.6875C324.311 26.9434 324.814 26.3633 325.459 25.9473C326.109 25.5254 326.812 25.3145 327.568 25.3145C328.805 25.3145 329.766 25.7217 330.451 26.5361C331.137 27.3506 331.479 28.5166 331.479 30.0342V30.7109H325.037C325.061 31.6484 325.333 32.4072 325.854 32.9873C326.382 33.5615 327.05 33.8486 327.858 33.8486C328.433 33.8486 328.919 33.7314 329.317 33.4971C329.716 33.2627 330.064 32.9521 330.363 32.5654L331.356 33.3389C330.56 34.5635 329.364 35.1758 327.771 35.1758ZM327.568 26.6504C326.912 26.6504 326.361 26.8906 325.916 27.3711C325.471 27.8457 325.195 28.5137 325.09 29.375H329.854V29.252C329.807 28.4258 329.584 27.7871 329.186 27.3359C328.787 26.8789 328.248 26.6504 327.568 26.6504ZM339.372 25.4902L339.425 26.6855C340.151 25.7715 341.101 25.3145 342.272 25.3145C344.282 25.3145 345.296 26.4482 345.313 28.7158V35H343.688V28.707C343.682 28.0215 343.523 27.5146 343.213 27.1865C342.908 26.8584 342.431 26.6943 341.78 26.6943C341.253 26.6943 340.79 26.835 340.392 27.1162C339.993 27.3975 339.683 27.7666 339.46 28.2236V35H337.834V25.4902H339.372ZM347.335 30.1572C347.335 29.2256 347.517 28.3877 347.88 27.6436C348.249 26.8994 348.759 26.3252 349.409 25.9209C350.065 25.5166 350.812 25.3145 351.65 25.3145C352.945 25.3145 353.991 25.7627 354.788 26.6592C355.591 27.5557 355.992 28.748 355.992 30.2363V30.3506C355.992 31.2764 355.813 32.1084 355.456 32.8467C355.104 33.5791 354.598 34.1504 353.936 34.5605C353.279 34.9707 352.523 35.1758 351.668 35.1758C350.379 35.1758 349.333 34.7275 348.53 33.8311C347.733 32.9346 347.335 31.748 347.335 30.2715V30.1572ZM348.97 30.3506C348.97 31.4053 349.213 32.252 349.699 32.8906C350.191 33.5293 350.848 33.8486 351.668 33.8486C352.494 33.8486 353.15 33.5264 353.637 32.8818C354.123 32.2314 354.366 31.3232 354.366 30.1572C354.366 29.1143 354.117 28.2705 353.619 27.626C353.127 26.9756 352.471 26.6504 351.65 26.6504C350.848 26.6504 350.2 26.9697 349.708 27.6084C349.216 28.2471 348.97 29.1611 348.97 30.3506ZM360.237 23.1875V25.4902H362.013V26.7471H360.237V32.6445C360.237 33.0254 360.316 33.3125 360.475 33.5059C360.633 33.6934 360.902 33.7871 361.283 33.7871C361.471 33.7871 361.729 33.752 362.057 33.6816V35C361.629 35.1172 361.213 35.1758 360.809 35.1758C360.082 35.1758 359.534 34.9561 359.165 34.5166C358.796 34.0771 358.611 33.4531 358.611 32.6445V26.7471H356.88V25.4902H358.611V23.1875H360.237ZM367.954 30.1572C367.954 29.2256 368.136 28.3877 368.499 27.6436C368.868 26.8994 369.378 26.3252 370.028 25.9209C370.685 25.5166 371.432 25.3145 372.27 25.3145C373.564 25.3145 374.61 25.7627 375.407 26.6592C376.21 27.5557 376.611 28.748 376.611 30.2363V30.3506C376.611 31.2764 376.433 32.1084 376.075 32.8467C375.724 33.5791 375.217 34.1504 374.555 34.5605C373.898 34.9707 373.143 35.1758 372.287 35.1758C370.998 35.1758 369.952 34.7275 369.149 33.8311C368.353 32.9346 367.954 31.748 367.954 30.2715V30.1572ZM369.589 30.3506C369.589 31.4053 369.832 32.252 370.318 32.8906C370.811 33.5293 371.467 33.8486 372.287 33.8486C373.113 33.8486 373.77 33.5264 374.256 32.8818C374.742 32.2314 374.985 31.3232 374.985 30.1572C374.985 29.1143 374.736 28.2705 374.238 27.626C373.746 26.9756 373.09 26.6504 372.27 26.6504C371.467 26.6504 370.819 26.9697 370.327 27.6084C369.835 28.2471 369.589 29.1611 369.589 30.3506ZM380.188 25.4902L380.241 26.6855C380.968 25.7715 381.917 25.3145 383.089 25.3145C385.099 25.3145 386.112 26.4482 386.13 28.7158V35H384.504V28.707C384.498 28.0215 384.34 27.5146 384.029 27.1865C383.725 26.8584 383.247 26.6943 382.597 26.6943C382.069 26.6943 381.606 26.835 381.208 27.1162C380.81 27.3975 380.499 27.7666 380.276 28.2236V35H378.65V25.4902H380.188ZM390.349 35H388.723V21.5H390.349V35ZM396.07 32.6182L398.285 25.4902H400.025L396.202 36.4678C395.61 38.0498 394.67 38.8408 393.381 38.8408L393.073 38.8145L392.467 38.7002V37.3818L392.906 37.417C393.457 37.417 393.885 37.3057 394.189 37.083C394.5 36.8604 394.755 36.4531 394.954 35.8613L395.314 34.8945L391.922 25.4902H393.697L396.07 32.6182Z" fill="#858585"/>
<path d="M263.355 14V5.74707H261.853V4.49023H263.355V3.68164C263.355 2.62109 263.657 1.79492 264.261 1.20312C264.87 0.611328 265.729 0.31543 266.836 0.31543C267.492 0.31543 268.321 0.494141 269.323 0.851562L269.051 2.22266C268.318 1.92969 267.621 1.7832 266.959 1.7832C266.262 1.7832 265.758 1.94141 265.447 2.25781C265.143 2.56836 264.99 3.03711 264.99 3.66406V4.49023H266.933V5.74707H264.99V14H263.355ZM270.132 14H268.497V4.49023H270.132V14ZM272.391 9.16602C272.391 7.68359 272.733 6.50586 273.419 5.63281C274.104 4.75391 275.013 4.31445 276.144 4.31445C277.304 4.31445 278.209 4.72461 278.859 5.54492L278.938 4.49023H280.424V13.7715C280.424 15.002 280.058 15.9717 279.325 16.6807C278.599 17.3896 277.62 17.7441 276.39 17.7441C275.704 17.7441 275.033 17.5977 274.377 17.3047C273.721 17.0117 273.22 16.6104 272.874 16.1006L273.718 15.125C274.415 15.9863 275.268 16.417 276.275 16.417C277.066 16.417 277.682 16.1943 278.121 15.749C278.566 15.3037 278.789 14.6768 278.789 13.8682V13.0508C278.139 13.8008 277.251 14.1758 276.126 14.1758C275.013 14.1758 274.11 13.7275 273.419 12.8311C272.733 11.9346 272.391 10.7129 272.391 9.16602ZM274.025 9.35059C274.025 10.4229 274.245 11.2666 274.685 11.8818C275.124 12.4912 275.739 12.7959 276.53 12.7959C277.556 12.7959 278.309 12.3301 278.789 11.3984V7.05664C278.291 6.14844 277.544 5.69434 276.548 5.69434C275.757 5.69434 275.139 6.00195 274.693 6.61719C274.248 7.23242 274.025 8.14355 274.025 9.35059ZM284.511 5.6416C285.231 4.75684 286.169 4.31445 287.323 4.31445C289.333 4.31445 290.347 5.44824 290.364 7.71582V14H288.738V7.70703C288.732 7.02148 288.574 6.51465 288.264 6.18652C287.959 5.8584 287.481 5.69434 286.831 5.69434C286.304 5.69434 285.841 5.83496 285.442 6.11621C285.044 6.39746 284.733 6.7666 284.511 7.22363V14H282.885V0.5H284.511V5.6416ZM295.005 2.1875V4.49023H296.78V5.74707H295.005V11.6445C295.005 12.0254 295.084 12.3125 295.242 12.5059C295.4 12.6934 295.67 12.7871 296.051 12.7871C296.238 12.7871 296.496 12.752 296.824 12.6816V14C296.396 14.1172 295.98 14.1758 295.576 14.1758C294.85 14.1758 294.302 13.9561 293.933 13.5166C293.563 13.0771 293.379 12.4531 293.379 11.6445V5.74707H291.647V4.49023H293.379V2.1875H295.005ZM309.023 14C308.93 13.8125 308.854 13.4785 308.795 12.998C308.039 13.7832 307.137 14.1758 306.088 14.1758C305.15 14.1758 304.38 13.9121 303.776 13.3848C303.179 12.8516 302.88 12.1777 302.88 11.3633C302.88 10.373 303.255 9.60547 304.005 9.06055C304.761 8.50977 305.821 8.23438 307.187 8.23438H308.769V7.4873C308.769 6.91895 308.599 6.46777 308.259 6.13379C307.919 5.79395 307.418 5.62402 306.756 5.62402C306.176 5.62402 305.689 5.77051 305.297 6.06348C304.904 6.35645 304.708 6.71094 304.708 7.12695H303.073C303.073 6.65234 303.24 6.19531 303.574 5.75586C303.914 5.31055 304.371 4.95898 304.945 4.70117C305.525 4.44336 306.161 4.31445 306.853 4.31445C307.948 4.31445 308.807 4.58984 309.428 5.14062C310.049 5.68555 310.371 6.43848 310.395 7.39941V11.7764C310.395 12.6494 310.506 13.3438 310.729 13.8594V14H309.023ZM306.325 12.7607C306.835 12.7607 307.318 12.6289 307.775 12.3652C308.232 12.1016 308.563 11.7588 308.769 11.3369V9.38574H307.494C305.502 9.38574 304.506 9.96875 304.506 11.1348C304.506 11.6445 304.676 12.043 305.016 12.3301C305.355 12.6172 305.792 12.7607 306.325 12.7607ZM312.557 9.16602C312.557 7.68359 312.899 6.50586 313.585 5.63281C314.271 4.75391 315.179 4.31445 316.31 4.31445C317.47 4.31445 318.375 4.72461 319.025 5.54492L319.104 4.49023H320.59V13.7715C320.59 15.002 320.224 15.9717 319.491 16.6807C318.765 17.3896 317.786 17.7441 316.556 17.7441C315.87 17.7441 315.199 17.5977 314.543 17.3047C313.887 17.0117 313.386 16.6104 313.04 16.1006L313.884 15.125C314.581 15.9863 315.434 16.417 316.441 16.417C317.232 16.417 317.848 16.1943 318.287 15.749C318.732 15.3037 318.955 14.6768 318.955 13.8682V13.0508C318.305 13.8008 317.417 14.1758 316.292 14.1758C315.179 14.1758 314.276 13.7275 313.585 12.8311C312.899 11.9346 312.557 10.7129 312.557 9.16602ZM314.191 9.35059C314.191 10.4229 314.411 11.2666 314.851 11.8818C315.29 12.4912 315.905 12.7959 316.696 12.7959C317.722 12.7959 318.475 12.3301 318.955 11.3984V7.05664C318.457 6.14844 317.71 5.69434 316.714 5.69434C315.923 5.69434 315.305 6.00195 314.859 6.61719C314.414 7.23242 314.191 8.14355 314.191 9.35059ZM328.922 14C328.828 13.8125 328.752 13.4785 328.693 12.998C327.938 13.7832 327.035 14.1758 325.986 14.1758C325.049 14.1758 324.278 13.9121 323.675 13.3848C323.077 12.8516 322.778 12.1777 322.778 11.3633C322.778 10.373 323.153 9.60547 323.903 9.06055C324.659 8.50977 325.72 8.23438 327.085 8.23438H328.667V7.4873C328.667 6.91895 328.497 6.46777 328.157 6.13379C327.817 5.79395 327.316 5.62402 326.654 5.62402C326.074 5.62402 325.588 5.77051 325.195 6.06348C324.803 6.35645 324.606 6.71094 324.606 7.12695H322.972C322.972 6.65234 323.139 6.19531 323.473 5.75586C323.812 5.31055 324.27 4.95898 324.844 4.70117C325.424 4.44336 326.06 4.31445 326.751 4.31445C327.847 4.31445 328.705 4.58984 329.326 5.14062C329.947 5.68555 330.27 6.43848 330.293 7.39941V11.7764C330.293 12.6494 330.404 13.3438 330.627 13.8594V14H328.922ZM326.224 12.7607C326.733 12.7607 327.217 12.6289 327.674 12.3652C328.131 12.1016 328.462 11.7588 328.667 11.3369V9.38574H327.393C325.4 9.38574 324.404 9.96875 324.404 11.1348C324.404 11.6445 324.574 12.043 324.914 12.3301C325.254 12.6172 325.69 12.7607 326.224 12.7607ZM334.608 14H332.982V4.49023H334.608V14ZM332.851 1.96777C332.851 1.7041 332.93 1.48145 333.088 1.2998C333.252 1.11816 333.492 1.02734 333.809 1.02734C334.125 1.02734 334.365 1.11816 334.529 1.2998C334.693 1.48145 334.775 1.7041 334.775 1.96777C334.775 2.23145 334.693 2.45117 334.529 2.62695C334.365 2.80273 334.125 2.89062 333.809 2.89062C333.492 2.89062 333.252 2.80273 333.088 2.62695C332.93 2.45117 332.851 2.23145 332.851 1.96777ZM338.757 4.49023L338.81 5.68555C339.536 4.77148 340.485 4.31445 341.657 4.31445C343.667 4.31445 344.681 5.44824 344.698 7.71582V14H343.072V7.70703C343.066 7.02148 342.908 6.51465 342.598 6.18652C342.293 5.8584 341.815 5.69434 341.165 5.69434C340.638 5.69434 340.175 5.83496 339.776 6.11621C339.378 6.39746 339.067 6.7666 338.845 7.22363V14H337.219V4.49023H338.757ZM352.688 11.4775C352.688 11.0381 352.521 10.6982 352.187 10.458C351.858 10.2119 351.281 10.001 350.455 9.8252C349.635 9.64941 348.981 9.43848 348.495 9.19238C348.015 8.94629 347.657 8.65332 347.423 8.31348C347.194 7.97363 347.08 7.56934 347.08 7.10059C347.08 6.32129 347.408 5.66211 348.064 5.12305C348.727 4.58398 349.57 4.31445 350.596 4.31445C351.674 4.31445 352.547 4.59277 353.215 5.14941C353.889 5.70605 354.226 6.41797 354.226 7.28516H352.591C352.591 6.83984 352.4 6.45605 352.02 6.13379C351.645 5.81152 351.17 5.65039 350.596 5.65039C350.004 5.65039 349.541 5.7793 349.207 6.03711C348.873 6.29492 348.706 6.63184 348.706 7.04785C348.706 7.44043 348.861 7.73633 349.172 7.93555C349.482 8.13477 350.042 8.3252 350.851 8.50684C351.665 8.68848 352.324 8.90527 352.828 9.15723C353.332 9.40918 353.704 9.71387 353.944 10.0713C354.19 10.4229 354.313 10.8535 354.313 11.3633C354.313 12.2129 353.974 12.8955 353.294 13.4111C352.614 13.9209 351.732 14.1758 350.648 14.1758C349.887 14.1758 349.213 14.041 348.627 13.7715C348.041 13.502 347.581 13.127 347.247 12.6465C346.919 12.1602 346.755 11.6357 346.755 11.0732H348.381C348.41 11.6182 348.627 12.0518 349.031 12.374C349.441 12.6904 349.98 12.8486 350.648 12.8486C351.264 12.8486 351.756 12.7256 352.125 12.4795C352.5 12.2275 352.688 11.8936 352.688 11.4775ZM358.638 2.1875V4.49023H360.413V5.74707H358.638V11.6445C358.638 12.0254 358.717 12.3125 358.875 12.5059C359.033 12.6934 359.303 12.7871 359.684 12.7871C359.871 12.7871 360.129 12.752 360.457 12.6816V14C360.029 14.1172 359.613 14.1758 359.209 14.1758C358.482 14.1758 357.935 13.9561 357.565 13.5166C357.196 13.0771 357.012 12.4531 357.012 11.6445V5.74707H355.28V4.49023H357.012V2.1875H358.638ZM372.322 11.4775C372.322 11.0381 372.155 10.6982 371.821 10.458C371.493 10.2119 370.916 10.001 370.09 9.8252C369.27 9.64941 368.616 9.43848 368.13 9.19238C367.649 8.94629 367.292 8.65332 367.058 8.31348C366.829 7.97363 366.715 7.56934 366.715 7.10059C366.715 6.32129 367.043 5.66211 367.699 5.12305C368.361 4.58398 369.205 4.31445 370.23 4.31445C371.309 4.31445 372.182 4.59277 372.85 5.14941C373.523 5.70605 373.86 6.41797 373.86 7.28516H372.226C372.226 6.83984 372.035 6.45605 371.654 6.13379C371.279 5.81152 370.805 5.65039 370.23 5.65039C369.639 5.65039 369.176 5.7793 368.842 6.03711C368.508 6.29492 368.341 6.63184 368.341 7.04785C368.341 7.44043 368.496 7.73633 368.807 7.93555C369.117 8.13477 369.677 8.3252 370.485 8.50684C371.3 8.68848 371.959 8.90527 372.463 9.15723C372.967 9.40918 373.339 9.71387 373.579 10.0713C373.825 10.4229 373.948 10.8535 373.948 11.3633C373.948 12.2129 373.608 12.8955 372.929 13.4111C372.249 13.9209 371.367 14.1758 370.283 14.1758C369.521 14.1758 368.848 14.041 368.262 13.7715C367.676 13.502 367.216 13.127 366.882 12.6465C366.554 12.1602 366.39 11.6357 366.39 11.0732H368.016C368.045 11.6182 368.262 12.0518 368.666 12.374C369.076 12.6904 369.615 12.8486 370.283 12.8486C370.898 12.8486 371.391 12.7256 371.76 12.4795C372.135 12.2275 372.322 11.8936 372.322 11.4775ZM378.721 9.59668L377.701 10.6602V14H376.075V0.5H377.701V8.66504L378.571 7.61914L381.533 4.49023H383.511L379.811 8.46289L383.941 14H382.034L378.721 9.59668ZM386.956 14H385.33V4.49023H386.956V14ZM385.198 1.96777C385.198 1.7041 385.277 1.48145 385.436 1.2998C385.6 1.11816 385.84 1.02734 386.156 1.02734C386.473 1.02734 386.713 1.11816 386.877 1.2998C387.041 1.48145 387.123 1.7041 387.123 1.96777C387.123 2.23145 387.041 2.45117 386.877 2.62695C386.713 2.80273 386.473 2.89062 386.156 2.89062C385.84 2.89062 385.6 2.80273 385.436 2.62695C385.277 2.45117 385.198 2.23145 385.198 1.96777ZM391.104 4.49023L391.157 5.68555C391.884 4.77148 392.833 4.31445 394.005 4.31445C396.015 4.31445 397.028 5.44824 397.046 7.71582V14H395.42V7.70703C395.414 7.02148 395.256 6.51465 394.945 6.18652C394.641 5.8584 394.163 5.69434 393.513 5.69434C392.985 5.69434 392.522 5.83496 392.124 6.11621C391.726 6.39746 391.415 6.7666 391.192 7.22363V14H389.566V4.49023H391.104ZM407.777 12.8486C408.357 12.8486 408.864 12.6729 409.298 12.3213C409.731 11.9697 409.972 11.5303 410.019 11.0029H411.557C411.527 11.5479 411.34 12.0664 410.994 12.5586C410.648 13.0508 410.186 13.4434 409.605 13.7363C409.031 14.0293 408.422 14.1758 407.777 14.1758C406.482 14.1758 405.451 13.7451 404.684 12.8838C403.922 12.0166 403.541 10.833 403.541 9.33301V9.06055C403.541 8.13477 403.711 7.31152 404.051 6.59082C404.391 5.87012 404.877 5.31055 405.51 4.91211C406.148 4.51367 406.901 4.31445 407.769 4.31445C408.835 4.31445 409.72 4.63379 410.423 5.27246C411.132 5.91113 411.51 6.74023 411.557 7.75977H410.019C409.972 7.14453 409.737 6.64062 409.315 6.24805C408.899 5.84961 408.384 5.65039 407.769 5.65039C406.942 5.65039 406.301 5.94922 405.844 6.54688C405.393 7.13867 405.167 7.99707 405.167 9.12207V9.42969C405.167 10.5254 405.393 11.3691 405.844 11.9609C406.295 12.5527 406.939 12.8486 407.777 12.8486ZM419.256 14C419.162 13.8125 419.086 13.4785 419.027 12.998C418.271 13.7832 417.369 14.1758 416.32 14.1758C415.383 14.1758 414.612 13.9121 414.009 13.3848C413.411 12.8516 413.112 12.1777 413.112 11.3633C413.112 10.373 413.487 9.60547 414.237 9.06055C414.993 8.50977 416.054 8.23438 417.419 8.23438H419.001V7.4873C419.001 6.91895 418.831 6.46777 418.491 6.13379C418.151 5.79395 417.65 5.62402 416.988 5.62402C416.408 5.62402 415.922 5.77051 415.529 6.06348C415.137 6.35645 414.94 6.71094 414.94 7.12695H413.306C413.306 6.65234 413.473 6.19531 413.807 5.75586C414.146 5.31055 414.604 4.95898 415.178 4.70117C415.758 4.44336 416.394 4.31445 417.085 4.31445C418.181 4.31445 419.039 4.58984 419.66 5.14062C420.281 5.68555 420.604 6.43848 420.627 7.39941V11.7764C420.627 12.6494 420.738 13.3438 420.961 13.8594V14H419.256ZM416.558 12.7607C417.067 12.7607 417.551 12.6289 418.008 12.3652C418.465 12.1016 418.796 11.7588 419.001 11.3369V9.38574H417.727C415.734 9.38574 414.738 9.96875 414.738 11.1348C414.738 11.6445 414.908 12.043 415.248 12.3301C415.588 12.6172 416.024 12.7607 416.558 12.7607ZM424.714 4.49023L424.767 5.68555C425.493 4.77148 426.442 4.31445 427.614 4.31445C429.624 4.31445 430.638 5.44824 430.655 7.71582V14H429.029V7.70703C429.023 7.02148 428.865 6.51465 428.555 6.18652C428.25 5.8584 427.772 5.69434 427.122 5.69434C426.595 5.69434 426.132 5.83496 425.733 6.11621C425.335 6.39746 425.024 6.7666 424.802 7.22363V14H423.176V4.49023H424.714ZM436.922 12.8486C437.502 12.8486 438.009 12.6729 438.442 12.3213C438.876 11.9697 439.116 11.5303 439.163 11.0029H440.701C440.672 11.5479 440.484 12.0664 440.139 12.5586C439.793 13.0508 439.33 13.4434 438.75 13.7363C438.176 14.0293 437.566 14.1758 436.922 14.1758C435.627 14.1758 434.596 13.7451 433.828 12.8838C433.066 12.0166 432.686 10.833 432.686 9.33301V9.06055C432.686 8.13477 432.855 7.31152 433.195 6.59082C433.535 5.87012 434.021 5.31055 434.654 4.91211C435.293 4.51367 436.046 4.31445 436.913 4.31445C437.979 4.31445 438.864 4.63379 439.567 5.27246C440.276 5.91113 440.654 6.74023 440.701 7.75977H439.163C439.116 7.14453 438.882 6.64062 438.46 6.24805C438.044 5.84961 437.528 5.65039 436.913 5.65039C436.087 5.65039 435.445 5.94922 434.988 6.54688C434.537 7.13867 434.312 7.99707 434.312 9.12207V9.42969C434.312 10.5254 434.537 11.3691 434.988 11.9609C435.439 12.5527 436.084 12.8486 436.922 12.8486ZM446.476 14.1758C445.187 14.1758 444.138 13.7539 443.329 12.9102C442.521 12.0605 442.116 10.9268 442.116 9.50879V9.20996C442.116 8.2666 442.295 7.42578 442.652 6.6875C443.016 5.94336 443.52 5.36328 444.164 4.94727C444.814 4.52539 445.518 4.31445 446.273 4.31445C447.51 4.31445 448.471 4.72168 449.156 5.53613C449.842 6.35059 450.185 7.5166 450.185 9.03418V9.71094H443.742C443.766 10.6484 444.038 11.4072 444.56 11.9873C445.087 12.5615 445.755 12.8486 446.563 12.8486C447.138 12.8486 447.624 12.7314 448.022 12.4971C448.421 12.2627 448.77 11.9521 449.068 11.5654L450.062 12.3389C449.265 13.5635 448.069 14.1758 446.476 14.1758ZM446.273 5.65039C445.617 5.65039 445.066 5.89062 444.621 6.37109C444.176 6.8457 443.9 7.51367 443.795 8.375H448.559V8.25195C448.512 7.42578 448.289 6.78711 447.891 6.33594C447.492 5.87891 446.953 5.65039 446.273 5.65039ZM456.671 5.94922C456.425 5.9082 456.158 5.8877 455.871 5.8877C454.805 5.8877 454.081 6.3418 453.7 7.25V14H452.074V4.49023H453.656L453.683 5.58887C454.216 4.73926 454.972 4.31445 455.95 4.31445C456.267 4.31445 456.507 4.35547 456.671 4.4375V5.94922Z" fill="#FF802E"/>
<path d="M408.155 23.1875V25.4902H409.931V26.7471H408.155V32.6445C408.155 33.0254 408.234 33.3125 408.393 33.5059C408.551 33.6934 408.82 33.7871 409.201 33.7871C409.389 33.7871 409.646 33.752 409.975 33.6816V35C409.547 35.1172 409.131 35.1758 408.727 35.1758C408 35.1758 407.452 34.9561 407.083 34.5166C406.714 34.0771 406.529 33.4531 406.529 32.6445V26.7471H404.798V25.4902H406.529V23.1875H408.155ZM411.231 30.1572C411.231 29.2256 411.413 28.3877 411.776 27.6436C412.146 26.8994 412.655 26.3252 413.306 25.9209C413.962 25.5166 414.709 25.3145 415.547 25.3145C416.842 25.3145 417.888 25.7627 418.685 26.6592C419.487 27.5557 419.889 28.748 419.889 30.2363V30.3506C419.889 31.2764 419.71 32.1084 419.353 32.8467C419.001 33.5791 418.494 34.1504 417.832 34.5605C417.176 34.9707 416.42 35.1758 415.564 35.1758C414.275 35.1758 413.229 34.7275 412.427 33.8311C411.63 32.9346 411.231 31.748 411.231 30.2715V30.1572ZM412.866 30.3506C412.866 31.4053 413.109 32.252 413.596 32.8906C414.088 33.5293 414.744 33.8486 415.564 33.8486C416.391 33.8486 417.047 33.5264 417.533 32.8818C418.02 32.2314 418.263 31.3232 418.263 30.1572C418.263 29.1143 418.014 28.2705 417.516 27.626C417.023 26.9756 416.367 26.6504 415.547 26.6504C414.744 26.6504 414.097 26.9697 413.604 27.6084C413.112 28.2471 412.866 29.1611 412.866 30.3506ZM428.019 26.6416C428.739 25.7568 429.677 25.3145 430.831 25.3145C432.841 25.3145 433.854 26.4482 433.872 28.7158V35H432.246V28.707C432.24 28.0215 432.082 27.5146 431.771 27.1865C431.467 26.8584 430.989 26.6943 430.339 26.6943C429.812 26.6943 429.349 26.835 428.95 27.1162C428.552 27.3975 428.241 27.7666 428.019 28.2236V35H426.393V21.5H428.019V26.6416ZM440.253 35.1758C438.964 35.1758 437.915 34.7539 437.106 33.9102C436.298 33.0605 435.894 31.9268 435.894 30.5088V30.21C435.894 29.2666 436.072 28.4258 436.43 27.6875C436.793 26.9434 437.297 26.3633 437.941 25.9473C438.592 25.5254 439.295 25.3145 440.051 25.3145C441.287 25.3145 442.248 25.7217 442.934 26.5361C443.619 27.3506 443.962 28.5166 443.962 30.0342V30.7109H437.52C437.543 31.6484 437.815 32.4072 438.337 32.9873C438.864 33.5615 439.532 33.8486 440.341 33.8486C440.915 33.8486 441.401 33.7314 441.8 33.4971C442.198 33.2627 442.547 32.9521 442.846 32.5654L443.839 33.3389C443.042 34.5635 441.847 35.1758 440.253 35.1758ZM440.051 26.6504C439.395 26.6504 438.844 26.8906 438.398 27.3711C437.953 27.8457 437.678 28.5137 437.572 29.375H442.336V29.252C442.289 28.4258 442.066 27.7871 441.668 27.3359C441.27 26.8789 440.73 26.6504 440.051 26.6504ZM447.618 35H445.992V21.5H447.618V35ZM458.262 30.3506C458.262 31.7979 457.931 32.9639 457.269 33.8486C456.606 34.7334 455.71 35.1758 454.579 35.1758C453.425 35.1758 452.517 34.8096 451.854 34.0771V38.6562H450.229V25.4902H451.714L451.793 26.5449C452.455 25.7246 453.375 25.3145 454.553 25.3145C455.695 25.3145 456.598 25.7451 457.26 26.6064C457.928 27.4678 458.262 28.666 458.262 30.2012V30.3506ZM456.636 30.166C456.636 29.0938 456.407 28.2471 455.95 27.626C455.493 27.0049 454.866 26.6943 454.069 26.6943C453.085 26.6943 452.347 27.1309 451.854 28.0039V32.5479C452.341 33.415 453.085 33.8486 454.087 33.8486C454.866 33.8486 455.484 33.541 455.941 32.9258C456.404 32.3047 456.636 31.3848 456.636 30.166ZM467.912 32.6182L470.127 25.4902H471.867L468.044 36.4678C467.452 38.0498 466.512 38.8408 465.223 38.8408L464.915 38.8145L464.309 38.7002V37.3818L464.748 37.417C465.299 37.417 465.727 37.3057 466.031 37.083C466.342 36.8604 466.597 36.4531 466.796 35.8613L467.156 34.8945L463.764 25.4902H465.539L467.912 32.6182ZM472.755 30.1572C472.755 29.2256 472.937 28.3877 473.3 27.6436C473.669 26.8994 474.179 26.3252 474.829 25.9209C475.485 25.5166 476.232 25.3145 477.07 25.3145C478.365 25.3145 479.411 25.7627 480.208 26.6592C481.011 27.5557 481.412 28.748 481.412 30.2363V30.3506C481.412 31.2764 481.233 32.1084 480.876 32.8467C480.524 33.5791 480.018 34.1504 479.355 34.5605C478.699 34.9707 477.943 35.1758 477.088 35.1758C475.799 35.1758 474.753 34.7275 473.95 33.8311C473.153 32.9346 472.755 31.748 472.755 30.2715V30.1572ZM474.39 30.3506C474.39 31.4053 474.633 32.252 475.119 32.8906C475.611 33.5293 476.268 33.8486 477.088 33.8486C477.914 33.8486 478.57 33.5264 479.057 32.8818C479.543 32.2314 479.786 31.3232 479.786 30.1572C479.786 29.1143 479.537 28.2705 479.039 27.626C478.547 26.9756 477.891 26.6504 477.07 26.6504C476.268 26.6504 475.62 26.9697 475.128 27.6084C474.636 28.2471 474.39 29.1611 474.39 30.3506ZM489.322 34.0596C488.689 34.8037 487.761 35.1758 486.536 35.1758C485.522 35.1758 484.749 34.8828 484.216 34.2969C483.688 33.7051 483.422 32.832 483.416 31.6777V25.4902H485.042V31.6338C485.042 33.0752 485.628 33.7959 486.8 33.7959C488.042 33.7959 488.868 33.333 489.278 32.4072V25.4902H490.904V35H489.357L489.322 34.0596ZM497.979 26.9492C497.733 26.9082 497.467 26.8877 497.18 26.8877C496.113 26.8877 495.39 27.3418 495.009 28.25V35H493.383V25.4902H494.965L494.991 26.5889C495.524 25.7393 496.28 25.3145 497.259 25.3145C497.575 25.3145 497.815 25.3555 497.979 25.4375V26.9492ZM505.02 32.4775C505.02 32.0381 504.853 31.6982 504.519 31.458C504.19 31.2119 503.613 31.001 502.787 30.8252C501.967 30.6494 501.313 30.4385 500.827 30.1924C500.347 29.9463 499.989 29.6533 499.755 29.3135C499.526 28.9736 499.412 28.5693 499.412 28.1006C499.412 27.3213 499.74 26.6621 500.396 26.123C501.059 25.584 501.902 25.3145 502.928 25.3145C504.006 25.3145 504.879 25.5928 505.547 26.1494C506.221 26.7061 506.558 27.418 506.558 28.2852H504.923C504.923 27.8398 504.732 27.4561 504.352 27.1338C503.977 26.8115 503.502 26.6504 502.928 26.6504C502.336 26.6504 501.873 26.7793 501.539 27.0371C501.205 27.2949 501.038 27.6318 501.038 28.0479C501.038 28.4404 501.193 28.7363 501.504 28.9355C501.814 29.1348 502.374 29.3252 503.183 29.5068C503.997 29.6885 504.656 29.9053 505.16 30.1572C505.664 30.4092 506.036 30.7139 506.276 31.0713C506.522 31.4229 506.646 31.8535 506.646 32.3633C506.646 33.2129 506.306 33.8955 505.626 34.4111C504.946 34.9209 504.064 35.1758 502.98 35.1758C502.219 35.1758 501.545 35.041 500.959 34.7715C500.373 34.502 499.913 34.127 499.579 33.6465C499.251 33.1602 499.087 32.6357 499.087 32.0732H500.713C500.742 32.6182 500.959 33.0518 501.363 33.374C501.773 33.6904 502.312 33.8486 502.98 33.8486C503.596 33.8486 504.088 33.7256 504.457 33.4795C504.832 33.2275 505.02 32.8936 505.02 32.4775ZM512.71 35.1758C511.421 35.1758 510.372 34.7539 509.563 33.9102C508.755 33.0605 508.351 31.9268 508.351 30.5088V30.21C508.351 29.2666 508.529 28.4258 508.887 27.6875C509.25 26.9434 509.754 26.3633 510.398 25.9473C511.049 25.5254 511.752 25.3145 512.508 25.3145C513.744 25.3145 514.705 25.7217 515.391 26.5361C516.076 27.3506 516.419 28.5166 516.419 30.0342V30.7109H509.977C510 31.6484 510.272 32.4072 510.794 32.9873C511.321 33.5615 511.989 33.8486 512.798 33.8486C513.372 33.8486 513.858 33.7314 514.257 33.4971C514.655 33.2627 515.004 32.9521 515.303 32.5654L516.296 33.3389C515.499 34.5635 514.304 35.1758 512.71 35.1758ZM512.508 26.6504C511.852 26.6504 511.301 26.8906 510.855 27.3711C510.41 27.8457 510.135 28.5137 510.029 29.375H514.793V29.252C514.746 28.4258 514.523 27.7871 514.125 27.3359C513.727 26.8789 513.188 26.6504 512.508 26.6504ZM520.075 35H518.449V21.5H520.075V35ZM523.485 35V26.7471H521.982V25.4902H523.485V24.5146C523.485 23.4951 523.758 22.707 524.303 22.1504C524.848 21.5938 525.618 21.3154 526.614 21.3154C526.989 21.3154 527.361 21.3652 527.73 21.4648L527.643 22.7832C527.367 22.7305 527.074 22.7041 526.764 22.7041C526.236 22.7041 525.829 22.8594 525.542 23.1699C525.255 23.4746 525.111 23.9141 525.111 24.4883V25.4902H527.142V26.7471H525.111V35H523.485ZM528.891 37.5488L527.968 36.916C528.519 36.1484 528.806 35.3574 528.829 34.543V33.0752H530.42V34.3496C530.42 34.9414 530.273 35.5332 529.98 36.125C529.693 36.7168 529.33 37.1914 528.891 37.5488ZM9.28125 51.3506C9.28125 52.8037 8.94727 53.9727 8.2793 54.8574C7.61133 55.7363 6.71484 56.1758 5.58984 56.1758C4.38867 56.1758 3.45996 55.751 2.80371 54.9014L2.72461 56H1.23047V42.5H2.85645V47.5361C3.5127 46.7217 4.41797 46.3145 5.57227 46.3145C6.72656 46.3145 7.63184 46.751 8.28809 47.624C8.9502 48.4971 9.28125 49.6924 9.28125 51.21V51.3506ZM7.65527 51.166C7.65527 50.0586 7.44141 49.2031 7.01367 48.5996C6.58594 47.9961 5.9707 47.6943 5.16797 47.6943C4.0957 47.6943 3.3252 48.1924 2.85645 49.1885V53.3018C3.35449 54.2979 4.13086 54.7959 5.18555 54.7959C5.96484 54.7959 6.57129 54.4941 7.00488 53.8906C7.43848 53.2871 7.65527 52.3789 7.65527 51.166ZM17.209 55.0596C16.5762 55.8037 15.6475 56.1758 14.4229 56.1758C13.4092 56.1758 12.6357 55.8828 12.1025 55.2969C11.5752 54.7051 11.3086 53.832 11.3027 52.6777V46.4902H12.9287V52.6338C12.9287 54.0752 13.5146 54.7959 14.6865 54.7959C15.9287 54.7959 16.7549 54.333 17.165 53.4072V46.4902H18.791V56H17.2441L17.209 55.0596ZM23.4756 44.1875V46.4902H25.251V47.7471H23.4756V53.6445C23.4756 54.0254 23.5547 54.3125 23.7129 54.5059C23.8711 54.6934 24.1406 54.7871 24.5215 54.7871C24.709 54.7871 24.9668 54.752 25.2949 54.6816V56C24.8672 56.1172 24.4512 56.1758 24.0469 56.1758C23.3203 56.1758 22.7725 55.9561 22.4033 55.5166C22.0342 55.0771 21.8496 54.4531 21.8496 53.6445V47.7471H20.1182V46.4902H21.8496V44.1875H23.4756ZM37.4941 56C37.4004 55.8125 37.3242 55.4785 37.2656 54.998C36.5098 55.7832 35.6074 56.1758 34.5586 56.1758C33.6211 56.1758 32.8506 55.9121 32.2471 55.3848C31.6494 54.8516 31.3506 54.1777 31.3506 53.3633C31.3506 52.373 31.7256 51.6055 32.4756 51.0605C33.2314 50.5098 34.292 50.2344 35.6572 50.2344H37.2393V49.4873C37.2393 48.9189 37.0693 48.4678 36.7295 48.1338C36.3896 47.7939 35.8887 47.624 35.2266 47.624C34.6465 47.624 34.1602 47.7705 33.7676 48.0635C33.375 48.3564 33.1787 48.7109 33.1787 49.127H31.5439C31.5439 48.6523 31.7109 48.1953 32.0449 47.7559C32.3848 47.3105 32.8418 46.959 33.416 46.7012C33.9961 46.4434 34.6318 46.3145 35.3232 46.3145C36.4189 46.3145 37.2773 46.5898 37.8984 47.1406C38.5195 47.6855 38.8418 48.4385 38.8652 49.3994V53.7764C38.8652 54.6494 38.9766 55.3438 39.1992 55.8594V56H37.4941ZM34.7959 54.7607C35.3057 54.7607 35.7891 54.6289 36.2461 54.3652C36.7031 54.1016 37.0342 53.7588 37.2393 53.3369V51.3857H35.9648C33.9727 51.3857 32.9766 51.9688 32.9766 53.1348C32.9766 53.6445 33.1465 54.043 33.4863 54.3301C33.8262 54.6172 34.2627 54.7607 34.7959 54.7607ZM43.1807 56H41.5547V42.5H43.1807V56ZM51.3281 53.4775C51.3281 53.0381 51.1611 52.6982 50.8271 52.458C50.499 52.2119 49.9219 52.001 49.0957 51.8252C48.2754 51.6494 47.6221 51.4385 47.1357 51.1924C46.6553 50.9463 46.2979 50.6533 46.0635 50.3135C45.835 49.9736 45.7207 49.5693 45.7207 49.1006C45.7207 48.3213 46.0488 47.6621 46.7051 47.123C47.3672 46.584 48.2109 46.3145 49.2363 46.3145C50.3145 46.3145 51.1875 46.5928 51.8555 47.1494C52.5293 47.7061 52.8662 48.418 52.8662 49.2852H51.2314C51.2314 48.8398 51.041 48.4561 50.6602 48.1338C50.2852 47.8115 49.8105 47.6504 49.2363 47.6504C48.6445 47.6504 48.1816 47.7793 47.8477 48.0371C47.5137 48.2949 47.3467 48.6318 47.3467 49.0479C47.3467 49.4404 47.502 49.7363 47.8125 49.9355C48.123 50.1348 48.6826 50.3252 49.4912 50.5068C50.3057 50.6885 50.9648 50.9053 51.4688 51.1572C51.9727 51.4092 52.3447 51.7139 52.585 52.0713C52.8311 52.4229 52.9541 52.8535 52.9541 53.3633C52.9541 54.2129 52.6143 54.8955 51.9346 55.4111C51.2549 55.9209 50.373 56.1758 49.2891 56.1758C48.5273 56.1758 47.8535 56.041 47.2676 55.7715C46.6816 55.502 46.2217 55.127 45.8877 54.6465C45.5596 54.1602 45.3955 53.6357 45.3955 53.0732H47.0215C47.0508 53.6182 47.2676 54.0518 47.6719 54.374C48.082 54.6904 48.6211 54.8486 49.2891 54.8486C49.9043 54.8486 50.3965 54.7256 50.7656 54.4795C51.1406 54.2275 51.3281 53.8936 51.3281 53.4775ZM54.6416 51.1572C54.6416 50.2256 54.8232 49.3877 55.1865 48.6436C55.5557 47.8994 56.0654 47.3252 56.7158 46.9209C57.3721 46.5166 58.1191 46.3145 58.957 46.3145C60.252 46.3145 61.2979 46.7627 62.0947 47.6592C62.8975 48.5557 63.2988 49.748 63.2988 51.2363V51.3506C63.2988 52.2764 63.1201 53.1084 62.7627 53.8467C62.4111 54.5791 61.9043 55.1504 61.2422 55.5605C60.5859 55.9707 59.8301 56.1758 58.9746 56.1758C57.6855 56.1758 56.6396 55.7275 55.8369 54.8311C55.04 53.9346 54.6416 52.748 54.6416 51.2715V51.1572ZM56.2764 51.3506C56.2764 52.4053 56.5195 53.252 57.0059 53.8906C57.498 54.5293 58.1543 54.8486 58.9746 54.8486C59.8008 54.8486 60.457 54.5264 60.9434 53.8818C61.4297 53.2314 61.6729 52.3232 61.6729 51.1572C61.6729 50.1143 61.4238 49.2705 60.9258 48.626C60.4336 47.9756 59.7773 47.6504 58.957 47.6504C58.1543 47.6504 57.5068 47.9697 57.0146 48.6084C56.5225 49.2471 56.2764 50.1611 56.2764 51.3506ZM69.3721 51.1572C69.3721 50.2256 69.5537 49.3877 69.917 48.6436C70.2861 47.8994 70.7959 47.3252 71.4463 46.9209C72.1025 46.5166 72.8496 46.3145 73.6875 46.3145C74.9824 46.3145 76.0283 46.7627 76.8252 47.6592C77.6279 48.5557 78.0293 49.748 78.0293 51.2363V51.3506C78.0293 52.2764 77.8506 53.1084 77.4932 53.8467C77.1416 54.5791 76.6348 55.1504 75.9727 55.5605C75.3164 55.9707 74.5605 56.1758 73.7051 56.1758C72.416 56.1758 71.3701 55.7275 70.5674 54.8311C69.7705 53.9346 69.3721 52.748 69.3721 51.2715V51.1572ZM71.0068 51.3506C71.0068 52.4053 71.25 53.252 71.7363 53.8906C72.2285 54.5293 72.8848 54.8486 73.7051 54.8486C74.5312 54.8486 75.1875 54.5264 75.6738 53.8818C76.1602 53.2314 76.4033 52.3232 76.4033 51.1572C76.4033 50.1143 76.1543 49.2705 75.6562 48.626C75.1641 47.9756 74.5078 47.6504 73.6875 47.6504C72.8848 47.6504 72.2373 47.9697 71.7451 48.6084C71.2529 49.2471 71.0068 50.1611 71.0068 51.3506ZM82.2744 44.1875V46.4902H84.0498V47.7471H82.2744V53.6445C82.2744 54.0254 82.3535 54.3125 82.5117 54.5059C82.6699 54.6934 82.9395 54.7871 83.3203 54.7871C83.5078 54.7871 83.7656 54.752 84.0938 54.6816V56C83.666 56.1172 83.25 56.1758 82.8457 56.1758C82.1191 56.1758 81.5713 55.9561 81.2021 55.5166C80.833 55.0771 80.6484 54.4531 80.6484 53.6445V47.7471H78.917V46.4902H80.6484V44.1875H82.2744ZM87.583 47.6416C88.3037 46.7568 89.2412 46.3145 90.3955 46.3145C92.4053 46.3145 93.4189 47.4482 93.4365 49.7158V56H91.8105V49.707C91.8047 49.0215 91.6465 48.5146 91.3359 48.1865C91.0312 47.8584 90.5537 47.6943 89.9033 47.6943C89.376 47.6943 88.9131 47.835 88.5146 48.1162C88.1162 48.3975 87.8057 48.7666 87.583 49.2236V56H85.957V42.5H87.583V47.6416ZM99.8174 56.1758C98.5283 56.1758 97.4795 55.7539 96.6709 54.9102C95.8623 54.0605 95.458 52.9268 95.458 51.5088V51.21C95.458 50.2666 95.6367 49.4258 95.9941 48.6875C96.3574 47.9434 96.8613 47.3633 97.5059 46.9473C98.1562 46.5254 98.8594 46.3145 99.6152 46.3145C100.852 46.3145 101.812 46.7217 102.498 47.5361C103.184 48.3506 103.526 49.5166 103.526 51.0342V51.7109H97.084C97.1074 52.6484 97.3799 53.4072 97.9014 53.9873C98.4287 54.5615 99.0967 54.8486 99.9053 54.8486C100.479 54.8486 100.966 54.7314 101.364 54.4971C101.763 54.2627 102.111 53.9521 102.41 53.5654L103.403 54.3389C102.606 55.5635 101.411 56.1758 99.8174 56.1758ZM99.6152 47.6504C98.959 47.6504 98.4082 47.8906 97.9629 48.3711C97.5176 48.8457 97.2422 49.5137 97.1367 50.375H101.9V50.252C101.854 49.4258 101.631 48.7871 101.232 48.3359C100.834 47.8789 100.295 47.6504 99.6152 47.6504ZM110.013 47.9492C109.767 47.9082 109.5 47.8877 109.213 47.8877C108.146 47.8877 107.423 48.3418 107.042 49.25V56H105.416V46.4902H106.998L107.024 47.5889C107.558 46.7393 108.313 46.3145 109.292 46.3145C109.608 46.3145 109.849 46.3555 110.013 46.4375V47.9492ZM124.014 51.3506C124.014 52.7979 123.683 53.9639 123.021 54.8486C122.358 55.7334 121.462 56.1758 120.331 56.1758C119.177 56.1758 118.269 55.8096 117.606 55.0771V59.6562H115.98V46.4902H117.466L117.545 47.5449C118.207 46.7246 119.127 46.3145 120.305 46.3145C121.447 46.3145 122.35 46.7451 123.012 47.6064C123.68 48.4678 124.014 49.666 124.014 51.2012V51.3506ZM122.388 51.166C122.388 50.0938 122.159 49.2471 121.702 48.626C121.245 48.0049 120.618 47.6943 119.821 47.6943C118.837 47.6943 118.099 48.1309 117.606 49.0039V53.5479C118.093 54.415 118.837 54.8486 119.839 54.8486C120.618 54.8486 121.236 54.541 121.693 53.9258C122.156 53.3047 122.388 52.3848 122.388 51.166ZM130.034 56.1758C128.745 56.1758 127.696 55.7539 126.888 54.9102C126.079 54.0605 125.675 52.9268 125.675 51.5088V51.21C125.675 50.2666 125.854 49.4258 126.211 48.6875C126.574 47.9434 127.078 47.3633 127.723 46.9473C128.373 46.5254 129.076 46.3145 129.832 46.3145C131.068 46.3145 132.029 46.7217 132.715 47.5361C133.4 48.3506 133.743 49.5166 133.743 51.0342V51.7109H127.301C127.324 52.6484 127.597 53.4072 128.118 53.9873C128.646 54.5615 129.313 54.8486 130.122 54.8486C130.696 54.8486 131.183 54.7314 131.581 54.4971C131.979 54.2627 132.328 53.9521 132.627 53.5654L133.62 54.3389C132.823 55.5635 131.628 56.1758 130.034 56.1758ZM129.832 47.6504C129.176 47.6504 128.625 47.8906 128.18 48.3711C127.734 48.8457 127.459 49.5137 127.354 50.375H132.117V50.252C132.07 49.4258 131.848 48.7871 131.449 48.3359C131.051 47.8789 130.512 47.6504 129.832 47.6504ZM135.202 51.1572C135.202 50.2256 135.384 49.3877 135.747 48.6436C136.116 47.8994 136.626 47.3252 137.276 46.9209C137.933 46.5166 138.68 46.3145 139.518 46.3145C140.812 46.3145 141.858 46.7627 142.655 47.6592C143.458 48.5557 143.859 49.748 143.859 51.2363V51.3506C143.859 52.2764 143.681 53.1084 143.323 53.8467C142.972 54.5791 142.465 55.1504 141.803 55.5605C141.146 55.9707 140.391 56.1758 139.535 56.1758C138.246 56.1758 137.2 55.7275 136.397 54.8311C135.601 53.9346 135.202 52.748 135.202 51.2715V51.1572ZM136.837 51.3506C136.837 52.4053 137.08 53.252 137.566 53.8906C138.059 54.5293 138.715 54.8486 139.535 54.8486C140.361 54.8486 141.018 54.5264 141.504 53.8818C141.99 53.2314 142.233 52.3232 142.233 51.1572C142.233 50.1143 141.984 49.2705 141.486 48.626C140.994 47.9756 140.338 47.6504 139.518 47.6504C138.715 47.6504 138.067 47.9697 137.575 48.6084C137.083 49.2471 136.837 50.1611 136.837 51.3506ZM153.932 51.3506C153.932 52.7979 153.601 53.9639 152.938 54.8486C152.276 55.7334 151.38 56.1758 150.249 56.1758C149.095 56.1758 148.187 55.8096 147.524 55.0771V59.6562H145.898V46.4902H147.384L147.463 47.5449C148.125 46.7246 149.045 46.3145 150.223 46.3145C151.365 46.3145 152.268 46.7451 152.93 47.6064C153.598 48.4678 153.932 49.666 153.932 51.2012V51.3506ZM152.306 51.166C152.306 50.0938 152.077 49.2471 151.62 48.626C151.163 48.0049 150.536 47.6943 149.739 47.6943C148.755 47.6943 148.017 48.1309 147.524 49.0039V53.5479C148.011 54.415 148.755 54.8486 149.757 54.8486C150.536 54.8486 151.154 54.541 151.611 53.9258C152.074 53.3047 152.306 52.3848 152.306 51.166ZM157.772 56H156.146V42.5H157.772V56ZM164.329 56.1758C163.04 56.1758 161.991 55.7539 161.183 54.9102C160.374 54.0605 159.97 52.9268 159.97 51.5088V51.21C159.97 50.2666 160.148 49.4258 160.506 48.6875C160.869 47.9434 161.373 47.3633 162.018 46.9473C162.668 46.5254 163.371 46.3145 164.127 46.3145C165.363 46.3145 166.324 46.7217 167.01 47.5361C167.695 48.3506 168.038 49.5166 168.038 51.0342V51.7109H161.596C161.619 52.6484 161.892 53.4072 162.413 53.9873C162.94 54.5615 163.608 54.8486 164.417 54.8486C164.991 54.8486 165.478 54.7314 165.876 54.4971C166.274 54.2627 166.623 53.9521 166.922 53.5654L167.915 54.3389C167.118 55.5635 165.923 56.1758 164.329 56.1758ZM164.127 47.6504C163.471 47.6504 162.92 47.8906 162.475 48.3711C162.029 48.8457 161.754 49.5137 161.648 50.375H166.412V50.252C166.365 49.4258 166.143 48.7871 165.744 48.3359C165.346 47.8789 164.807 47.6504 164.127 47.6504ZM169.963 55.1475C169.963 54.8662 170.045 54.6318 170.209 54.4443C170.379 54.2568 170.631 54.1631 170.965 54.1631C171.299 54.1631 171.551 54.2568 171.721 54.4443C171.896 54.6318 171.984 54.8662 171.984 55.1475C171.984 55.417 171.896 55.6426 171.721 55.8242C171.551 56.0059 171.299 56.0967 170.965 56.0967C170.631 56.0967 170.379 56.0059 170.209 55.8242C170.045 55.6426 169.963 55.417 169.963 55.1475Z" fill="#9E6A6A"/>
</svg>
